<svg width="42" height="43" viewBox="0 0 42 43" fill="none" xmlns="http://www.w3.org/2000/svg">
<path fill-rule="evenodd" clip-rule="evenodd" d="M18.902 0.514572C19.4745 0.434303 20.0421 0.690093 20.3611 1.1721C20.9241 2.02264 22.1611 3.11802 23.9577 3.4362C25.7016 3.74504 28.2247 3.3637 31.4729 0.819204C31.9459 0.448636 32.5945 0.396154 33.121 0.685838C33.6475 0.975521 33.9503 1.55145 33.8904 2.14939C33.7741 3.31181 33.9698 5.21828 34.9598 6.96269C35.9158 8.64733 37.6507 10.2567 40.8006 10.9009C41.2875 11.0005 41.6934 11.3347 41.8846 11.7934C42.0758 12.2522 42.0274 12.7758 41.7553 13.1916C41.0559 14.2609 40.1866 16.1706 39.9361 18.286C39.6892 20.3717 40.0495 22.5477 41.6369 24.392C42.0214 24.8386 42.1087 25.469 41.86 26.0033C41.6114 26.5376 41.0729 26.8769 40.4837 26.8704C39.4064 26.8586 37.7334 27.2121 36.364 28.2901C35.0622 29.3149 33.8979 31.0982 33.8979 34.2637C33.8979 35.0921 33.2263 35.7637 32.3979 35.7637C31.5695 35.7637 30.8979 35.0921 30.8979 34.2637C30.8979 30.2437 32.4343 27.5656 34.5084 25.9328C35.604 25.0704 36.8103 24.5296 37.9442 24.2193C36.9058 22.1293 36.7221 19.9168 36.9569 17.9334C37.1618 16.2027 37.6875 14.6009 38.2817 13.3101C35.3784 12.278 33.4915 10.4536 32.3506 8.44341C31.6503 7.20932 31.2413 5.92527 31.0344 4.7402C28.1972 6.38241 25.63 6.77903 23.4346 6.39024C21.969 6.13068 20.7393 5.53263 19.7684 4.81178C19.0356 6.91184 18.2638 8.56781 16.9849 9.80766C15.2263 11.5127 12.7097 12.2613 8.90641 12.9713C8.09205 13.1234 7.30864 12.5864 7.1566 11.7721C7.00457 10.9577 7.54148 10.1743 8.35584 10.0223C12.194 9.3057 13.8565 8.66228 14.8967 7.65375C15.9709 6.61234 16.5872 5.00628 17.6801 1.54805C17.8542 0.996887 18.3296 0.594842 18.902 0.514572ZM25.1229 13.0936C23.2804 13.2554 21.3122 14.3445 20.057 15.3658C19.4145 15.8887 18.4697 15.7916 17.9468 15.149C17.424 14.5064 17.521 13.5617 18.1636 13.0388C19.6681 11.8147 22.1929 10.3393 24.8606 10.1051C26.2282 9.98505 27.6831 10.1888 29.0303 10.976C30.3804 11.7649 31.49 13.0623 32.2978 14.8983C33.8593 18.4478 33.7311 21.4182 32.7724 23.7074C31.8369 25.9413 30.1663 27.393 28.8326 28.0679C28.0935 28.442 27.191 28.1461 26.8169 27.4069C26.4429 26.6678 26.7388 25.7653 27.478 25.3912C28.246 25.0025 29.3743 24.0552 30.0052 22.5486C30.613 21.0974 30.8186 18.9859 29.5518 16.1063C28.9453 14.7278 28.216 13.9748 27.5169 13.5663C26.8149 13.1561 26.0104 13.0157 25.1229 13.0936ZM10.3079 16.9948C13.8375 16.3172 17.3612 17.3268 19.2779 18.9318C22.1421 21.3303 23.1465 24.1134 22.9892 26.8862C22.8653 29.0711 22.0266 31.1497 21.0451 32.9347C23.8621 35.29 28.3654 39.0864 29.2174 39.9409C29.8024 40.5275 29.8011 41.4772 29.2145 42.0622C28.6279 42.6472 27.6781 42.6458 27.0931 42.0592C26.3782 41.3423 22.2705 37.8726 19.4248 35.4907C19.002 36.0724 18.5507 36.6435 18.0809 37.2054C16.7498 38.7973 14.624 39.6133 12.4898 39.8515C10.3249 40.0932 7.92769 39.7717 5.81456 38.8473C3.69518 37.9202 1.77559 36.344 0.754112 34.0272C-0.27561 31.6917 -0.296557 28.8222 0.975504 25.512C3.01711 20.1992 6.64623 17.6978 10.3079 16.9948ZM10.8735 19.941C8.26399 20.442 5.4583 22.21 3.77585 26.5881C2.72038 29.3347 2.85779 31.3623 3.49914 32.8169C4.14874 34.2903 5.41293 35.3972 7.01686 36.0988C8.62705 36.8031 10.4926 37.0559 12.157 36.8701C13.8519 36.6808 15.1217 36.0676 15.7794 35.281C16.5684 34.3374 17.2629 33.4112 17.8338 32.486C18.9854 30.6195 19.8854 28.6302 19.994 26.7163C20.0964 24.9128 19.5078 23.0373 17.3518 21.2319C16.199 20.2665 13.615 19.4147 10.8735 19.941ZM10.6176 23.2365C10.8824 22.4515 11.7333 22.0298 12.5183 22.2946C13.1653 22.5129 14.1302 22.9388 15.0169 23.5449C15.8538 24.1169 16.8986 25.0362 17.256 26.3303C17.4765 27.1288 17.0079 27.955 16.2094 28.1755C15.4108 28.396 14.5847 27.9274 14.3642 27.1289C14.2973 26.8866 13.9967 26.4813 13.3241 26.0217C12.7014 25.5961 11.9928 25.2834 11.5595 25.1373C10.7745 24.8725 10.3528 24.0215 10.6176 23.2365Z" fill="#347362"/>
</svg>
