<svg width="545" height="351" viewBox="0 0 545 351" fill="none" xmlns="http://www.w3.org/2000/svg">
<path fill-rule="evenodd" clip-rule="evenodd" d="M538.898 4.89941C523.446 16.6729 500.642 34.4131 481.457 50.1308C471.699 58.1254 462.903 65.5748 456.493 71.4406C453.283 74.3779 450.708 76.8841 448.918 78.8439C448.021 79.8268 447.359 80.6307 446.92 81.2541C446.789 81.4408 446.691 81.5923 446.619 81.7114L479.978 102.888C493.601 85.7173 512.004 61.0362 524.91 40.3304C531.602 29.5948 536.707 20.0983 538.962 13.3254C540.113 9.8678 540.376 7.52686 540.078 6.18493C539.947 5.59188 539.737 5.3316 539.562 5.19274C539.444 5.09856 539.242 4.98196 538.898 4.89941ZM444.353 84.0203C444.139 84.0466 443.917 84.0442 443.693 84.0098C442.38 83.8083 441.479 82.5841 441.682 81.2754C441.839 80.2534 442.443 79.2669 442.982 78.5007C443.585 77.643 444.398 76.671 445.361 75.6158C447.294 73.4995 449.991 70.8811 453.24 67.908C459.748 61.9531 468.623 54.4385 478.403 46.4263C487.123 39.2826 496.583 31.7259 505.763 24.5C496.113 30.9934 486.041 37.7839 476.712 44.0954C466.768 50.823 457.672 57.0039 450.831 61.6997C443.901 66.457 439.466 69.5698 438.663 70.2551C437.654 71.1165 436.136 70.9995 435.272 69.9939C434.408 68.9882 434.525 67.4747 435.534 66.6133C436.588 65.7139 441.339 62.3939 448.103 57.7504C454.957 53.0454 464.064 46.8573 474.011 40.1278C490.068 29.2645 508.323 16.984 522.842 7.23958C503.779 11.5569 473.669 20.9108 446.543 30.1475C429.877 35.8227 414.438 41.4187 403.537 45.7079C398.323 47.7596 394.193 49.4943 391.473 50.7857C392.577 51.3391 393.819 51.9854 395.149 52.6926C398.651 54.5536 402.996 56.9605 407.594 59.5549C416.791 64.7451 427.046 70.7123 433.683 74.6241L434.64 75.188L434.829 76.28C435.603 80.7482 436.763 87.5161 437.731 93.2983C437.954 94.6301 438.167 95.9108 438.362 97.0999C440.681 92.4435 442.685 88.0366 444.353 84.0203ZM434.627 104.298C434.614 104.206 434.599 104.1 434.582 103.977C434.497 103.382 434.372 102.568 434.216 101.58C433.903 99.6066 433.47 96.9734 432.987 94.0873C432.097 88.7703 431.043 82.6142 430.278 78.1882C423.656 74.2921 413.957 68.6556 405.224 63.7278C400.641 61.1415 396.336 58.7572 392.887 56.9239C389.348 55.0436 386.921 53.8593 385.962 53.541C385.645 53.4355 384.931 53.1427 384.472 52.3625C383.932 51.4479 384.113 50.5352 384.344 50.0101C384.55 49.5416 384.851 49.2147 385.028 49.0392C385.23 48.8388 385.449 48.6646 385.65 48.5185C386.411 47.9638 387.594 47.3293 388.998 46.6514C391.876 45.2611 396.286 43.406 401.771 41.2477C412.765 36.922 428.279 31.2997 444.988 25.6098C478.3 14.2665 516.766 2.51445 533.566 0.352728C534.985 0.170259 536.281 0.0513192 537.43 0.00839234C537.728 -0.0027414 538.021 -0.0029417 538.31 0.00865711C539.879 0.0717143 541.36 0.489389 542.56 1.44309C543.775 2.40857 544.461 3.73131 544.775 5.15042C545.37 7.83278 544.726 11.2326 543.527 14.8357C541.081 22.1842 535.711 32.0888 528.996 42.8612C515.52 64.4817 496.186 90.2855 482.398 107.564L481.05 109.253L460.3 96.0811C456.472 98.5167 451.236 101.829 446.589 104.727C443.993 106.347 441.573 107.842 439.683 108.984C438.417 109.748 437.287 110.418 436.502 110.846C425.598 130.158 410.223 151.587 391.534 167.061C374.141 181.462 353.648 190.876 331.148 188.276C322.121 208.072 304.826 229.192 274.997 248.078C235.621 273.009 194.652 277.15 163.008 273.831C149.123 292.632 126.289 312.068 90.5204 330.072C39.9151 355.544 0.574982 354.887 -28.0928 343.336C-56.6086 331.846 -74.217 309.713 -81.7464 292.682C-87.9506 281.579 -107.326 261.981 -135.907 270.472C-137.18 270.85 -138.52 270.128 -138.899 268.859C-139.279 267.59 -138.554 266.255 -137.281 265.877C-105.491 256.432 -84.1524 278.431 -77.4847 290.455L-77.4315 290.551L-77.3872 290.652C-70.3085 306.731 -53.5287 327.915 -26.2903 338.89C0.853592 349.827 38.7351 350.766 88.3523 325.792C122.216 308.746 143.997 290.568 157.485 273.166C140.645 270.871 126.845 266.544 117.923 262.427L117.917 262.424C107.746 257.7 94.0256 247.702 85.8552 232.925C77.6021 217.998 75.1324 198.386 87.3006 174.96C93.3899 163.238 100.806 156.504 109.03 153.734C117.237 150.97 125.796 152.306 133.875 155.796C149.931 162.73 164.973 178.539 173.908 190.834L173.976 190.927L174.035 191.027C181.534 203.767 186.022 225.855 175.859 251.139C173.477 257.064 170.297 263.15 166.176 269.324C196.513 272.037 235.208 267.59 272.418 244.031C300.917 225.986 317.441 206.04 326.2 187.514C325.884 187.453 325.568 187.39 325.251 187.324C310.375 184.24 300.035 179.545 293.238 173.78C286.379 167.962 283.22 161.125 282.645 154.079C281.522 140.31 290.289 126.333 298.366 117.744C300.255 115.195 303.871 112.3 308.86 111.442C314.033 110.553 320.316 111.912 327.238 117.401C331.886 121.086 335.745 128.112 337.804 137.015C339.882 145.998 340.198 157.16 337.494 169.437C336.48 174.043 335.043 178.801 333.116 183.658C353.333 185.509 372.044 176.965 388.461 163.372C406.734 148.242 421.896 127.061 432.66 107.872C433.333 106.672 433.989 105.48 434.627 104.298ZM328.194 183.004C330.258 177.989 331.763 173.101 332.796 168.409C335.354 156.792 335.027 146.35 333.117 138.093C331.189 129.757 327.716 123.906 324.244 121.154C318.174 116.341 313.244 115.555 309.678 116.168C306.016 116.797 303.407 118.966 302.174 120.676L302.081 120.805L301.972 120.921C294.17 129.179 286.479 141.917 287.439 153.691C287.909 159.447 290.449 165.118 296.355 170.128C302.322 175.189 311.809 179.639 326.231 182.63C326.887 182.766 327.541 182.89 328.194 183.004ZM160.742 268.753C165.401 262.112 168.879 255.61 171.394 249.356C180.972 225.527 176.663 205.042 169.944 193.553C161.197 181.542 146.812 166.609 131.963 160.195C124.57 157.002 117.288 156.014 110.57 158.277C103.871 160.533 97.2814 166.174 91.5721 177.165C80.143 199.168 82.5893 217.084 90.0678 230.61C97.6274 244.283 110.451 253.665 119.943 258.075C128.95 262.231 143.248 266.64 160.742 268.753ZM440.982 102.561C441.953 101.961 442.979 101.323 444.038 100.662C447.945 98.2256 452.273 95.4934 455.824 93.2393L447.822 88.1596C445.9 92.6195 443.611 97.4741 440.982 102.561ZM418.957 93.8058C420.265 94.036 421.138 95.2798 420.907 96.5837C419.13 106.617 408.705 129.716 381.275 145.136C380.118 145.787 378.652 145.379 377.999 144.226C377.347 143.072 377.756 141.61 378.913 140.96C405.042 126.27 414.634 104.425 416.171 95.7498C416.402 94.4459 417.649 93.5755 418.957 93.8058ZM320.714 131.516C321.982 131.12 323.331 131.824 323.728 133.088C324.312 134.95 325.089 137.979 325.552 141.114C325.999 144.145 326.222 147.697 325.385 150.367C324.988 151.63 323.639 152.334 322.371 151.939C321.104 151.544 320.397 150.199 320.794 148.935C321.282 147.38 321.229 144.769 320.793 141.812C320.372 138.961 319.657 136.179 319.137 134.519C318.74 133.256 319.447 131.911 320.714 131.516ZM109.159 183.098C110.2 183.921 110.374 185.429 109.549 186.467C107.387 189.184 104.409 194.06 102.652 199.665C100.892 205.282 100.447 211.331 102.892 216.666C103.444 217.87 102.912 219.292 101.704 219.843C100.496 220.393 99.0689 219.862 98.5169 218.658C95.3936 211.843 96.1087 204.466 98.0608 198.236C100.016 191.995 103.302 186.603 105.78 183.487C106.605 182.45 108.118 182.276 109.159 183.098Z" fill="#EF8451"/>
</svg>
