<svg width="130" height="22" viewBox="0 0 130 22" fill="none" xmlns="http://www.w3.org/2000/svg">
<g opacity="0.2">
<path d="M51.0557 2.23987C51.0557 1.7194 51.2629 1.22024 51.6317 0.852215C52.0005 0.484185 52.5008 0.277428 53.0224 0.277428C53.5441 0.277428 54.0443 0.484185 54.4131 0.852215C54.7819 1.22024 54.9891 1.7194 54.9891 2.23987C54.9701 2.74767 54.7546 3.22835 54.3879 3.58091C54.0211 3.93346 53.5317 4.13043 53.0224 4.13043C52.5132 4.13043 52.0237 3.93346 51.657 3.58091C51.2902 3.22835 51.0747 2.74767 51.0557 2.23987Z" fill="#0F393B"/>
<path d="M82.0859 15.3279C82.0859 14.2388 82.9652 13.3587 84.0486 13.3587C84.5716 13.3587 85.0733 13.566 85.4431 13.9351C85.813 14.3041 86.0208 14.8047 86.0208 15.3266C86.0208 15.8485 85.813 16.3491 85.4431 16.7181C85.0733 17.0872 84.5716 17.2945 84.0486 17.2945C82.9666 17.2945 82.0859 16.413 82.0859 15.3266" fill="#0F393B"/>
<path d="M18.7784 14.4764C17.0856 14.4764 15.9078 13.1344 15.9078 11.2157C15.9078 9.29837 17.0856 7.95773 18.7798 7.95773C20.4822 7.95773 21.6723 9.29837 21.6723 11.2157C21.6723 13.1645 20.5082 14.4764 18.7784 14.4764ZM18.7784 5.09196C15.1956 5.09196 12.5947 7.66801 12.5947 11.2157C12.5947 14.7648 15.197 17.3395 18.7784 17.3395C22.3763 17.3395 24.9867 14.7648 24.9867 11.2171C24.9867 7.66801 22.3763 5.09196 18.7798 5.09196H18.7784ZM47.2466 11.5232C47.1219 11.2826 46.9643 11.0604 46.7782 10.8631L46.6686 10.7497L46.7837 10.6404C46.9481 10.4668 47.1165 10.2618 47.2781 10.024L50.4418 5.33385H46.6016L44.2253 9.00319C44.0911 9.19998 43.8199 9.29837 43.4132 9.29837H42.8722V2.36149C42.8722 0.974382 42.0052 0.785791 41.0698 0.785791H39.4673L39.4714 17.1591H42.8735V12.2475H43.1927C43.5803 12.2475 43.8432 12.2926 43.9651 12.5031L45.8414 16.0371C46.3659 16.9965 46.8877 17.1591 47.8711 17.1591H50.4775L48.5354 13.9558L47.248 11.5232H47.2466ZM63.7611 5.06463C62.03 5.06463 60.926 5.83266 60.307 6.4818L60.1016 6.68952L60.0276 6.40664C59.8468 5.71104 59.2333 5.32975 58.3115 5.32975H56.7871L56.7967 17.155H60.1755V11.705C60.1755 11.172 60.244 10.7101 60.3864 10.2878C60.7617 9.01002 61.8108 8.21602 63.1215 8.21602C64.176 8.21602 64.5884 8.77223 64.5884 10.2072V15.3579C64.5884 16.5824 65.1567 17.155 66.3852 17.155H67.9931L67.9877 9.63319C67.9877 6.64579 66.5263 5.066 63.7611 5.066V5.06463ZM53.0632 5.33385H51.4622L51.4731 14.4778V17.1591H53.181L53.2413 17.1618L54.0384 17.1591H54.8301V17.155H54.8355L54.8423 7.13094C54.8423 5.92149 54.263 5.33522 53.0647 5.33522L53.0632 5.33385ZM32.0483 14.4764C30.3555 14.4764 29.1763 13.1344 29.1763 11.2157C29.1763 9.29837 30.3555 7.95773 32.0497 7.95773C33.748 7.95773 34.9423 9.29837 34.9423 11.2157C34.9423 13.1645 33.7781 14.4764 32.0497 14.4764H32.0483ZM32.0483 5.09196C28.4627 5.09196 25.8605 7.66801 25.8605 11.2157C25.8605 14.7648 28.4628 17.3395 32.0497 17.3395C35.6422 17.3395 38.258 14.7648 38.258 11.2171C38.258 7.66801 35.6422 5.09196 32.0497 5.09196" fill="#0F393B"/>
<path d="M104.465 14.4764C102.772 14.4764 101.591 13.1344 101.591 11.2157C101.591 9.29837 102.772 7.95773 104.465 7.95773C106.166 7.95773 107.359 9.29837 107.359 11.2157C107.359 13.1645 106.194 14.4764 104.465 14.4764ZM104.465 5.09197C100.879 5.09197 98.2783 7.66802 98.2783 11.2157C98.2783 14.7648 100.879 17.3395 104.465 17.3395C108.058 17.3395 110.673 14.7648 110.673 11.2171C110.673 7.66801 108.057 5.09197 104.465 5.09197Z" fill="#0F393B"/>
<path d="M75.1106 13.9558C73.263 13.9558 72.6057 12.3487 72.6057 10.8413C72.6057 10.1771 72.7741 8.01381 74.9339 8.01381C76.0063 8.01381 77.4348 8.31993 77.4348 10.952C77.4348 13.4351 76.1707 13.9558 75.1106 13.9558ZM79.1892 5.30246C78.5482 5.30246 78.0552 5.55802 77.8073 6.02403L77.7142 6.20442L77.5581 6.06776C77.013 5.59765 76.0351 5.03871 74.4477 5.03871C71.2881 5.03871 69.1611 7.40704 69.1611 10.9288C69.1611 14.4492 71.3621 16.909 74.5108 16.909C75.5859 16.909 76.4363 16.6576 77.1102 16.1492L77.3704 15.9538V16.2818C77.3704 17.8616 76.3473 18.7335 74.4915 18.7335C73.589 18.7335 72.7686 18.5148 72.218 18.3153C71.5031 18.0994 71.0813 18.2784 70.7923 18.9959L70.5239 19.6573L70.1444 20.6248L70.3787 20.7492C71.5675 21.3778 73.1138 21.7537 74.5108 21.7537C77.3869 21.7537 80.7478 20.2846 80.7478 16.1492L80.7602 5.30246H79.1892Z" fill="#0F393B"/>
<path d="M6.19684 14.341L3.44672 14.3383V11.0585C3.44672 10.356 3.71927 9.99251 4.32051 9.90778H6.19684C7.53493 9.90778 8.40049 10.7496 8.40186 12.1121C8.40049 13.5115 7.55684 14.3397 6.19684 14.3397V14.341ZM3.44672 5.49091V4.62722C3.44672 3.87149 3.76721 3.51207 4.46981 3.46561H5.87777C7.08437 3.46561 7.80751 4.18581 7.80751 5.39252C7.80751 6.31088 7.3117 7.38366 5.92157 7.38366H3.44672V5.49091ZM9.7085 8.7653L9.21129 8.48651L9.64547 8.11616C10.1508 7.68295 10.9959 6.70856 10.9959 5.02763C10.9959 2.45295 8.9963 0.791159 5.89967 0.791159H1.96344C1.52054 0.807272 1.10085 0.992804 0.791305 1.30931C0.481762 1.62581 0.306115 2.04901 0.300781 2.49121V17.1002H5.96947C9.41124 17.1002 11.6327 15.2307 11.6327 12.3349C11.6327 10.7756 10.9151 9.44313 9.7085 8.7653Z" fill="#0F393B"/>
<path d="M125.765 5.1042C125.067 5.10676 124.379 5.26565 123.752 5.56913C123.124 5.87261 122.572 6.31293 122.138 6.85755L121.894 7.16641L121.703 6.82066C121.075 5.68227 119.999 5.1042 118.502 5.1042C116.931 5.1042 115.878 5.97883 115.389 6.49814L115.068 6.84389L114.945 6.38881C114.767 5.73284 114.182 5.37342 113.297 5.37342H111.877L111.863 17.1536H115.089V11.9536C115.089 11.4972 115.146 11.0476 115.26 10.5761C115.568 9.31881 116.415 7.96724 117.838 8.10253C118.714 8.18726 119.144 8.86373 119.144 10.1702V17.1536H122.393V11.9536C122.393 11.3837 122.446 10.9574 122.575 10.531C122.835 9.33111 123.72 8.10116 125.092 8.10116C126.087 8.10116 126.454 8.66147 126.454 10.1702V15.4316C126.454 16.6206 126.985 17.1536 128.178 17.1536H129.696L129.698 9.63313C129.698 6.62796 128.373 5.1042 125.765 5.1042ZM96.409 13.0633C96.3994 13.0756 95.0121 14.5351 93.1837 14.5351C91.5182 14.5351 89.8364 13.5157 89.8364 11.2403C89.8364 9.27508 91.1403 7.90164 93.0084 7.90164C93.6137 7.90164 94.304 8.11756 94.4122 8.48245L94.4273 8.54394C94.4963 8.79515 94.6464 9.01662 94.8544 9.17401C95.0624 9.3314 95.3166 9.41592 95.5777 9.41447L97.3445 9.4172V7.87567C97.3445 5.84216 94.7519 5.1042 93.0084 5.1042C89.2776 5.1042 86.5713 7.69528 86.5713 11.2649C86.5713 14.8317 89.2475 17.42 92.9399 17.42C96.142 17.42 97.8841 15.3196 97.9006 15.2991L97.9937 15.1843L96.5939 12.8679L96.409 13.0633Z" fill="#0F393B"/>
</g>
</svg>
