<svg width="20" height="20" viewBox="0 0 20 20" fill="none" xmlns="http://www.w3.org/2000/svg">
<path d="M14.5 7.75L10.2236 9.8882C10.0828 9.95858 9.91716 9.95858 9.77639 9.8882L5.5 7.75M14.5 7.75L18.1056 5.94721C18.4741 5.76295 18.4741 5.23705 18.1056 5.05279L10.2236 1.1118C10.0828 1.04142 9.91716 1.04142 9.77639 1.1118L1.89443 5.05279C1.5259 5.23705 1.5259 5.76295 1.89443 5.94721L5.5 7.75M14.5 7.75L18.1056 9.55279C18.4741 9.73705 18.4741 10.263 18.1056 10.4472L14.5 12.25M5.5 7.75L1.89443 9.55279C1.5259 9.73705 1.5259 10.263 1.89443 10.4472L5.5 12.25M14.5 12.25L10.2236 14.3882C10.0828 14.4586 9.91716 14.4586 9.77639 14.3882L5.5 12.25M14.5 12.25L18.1056 14.0528C18.4741 14.237 18.4741 14.763 18.1056 14.9472L10.2236 18.8882C10.0828 18.9586 9.91716 18.9586 9.77639 18.8882L1.89443 14.9472C1.5259 14.763 1.5259 14.237 1.89443 14.0528L5.5 12.25" stroke="#F5F3EE" stroke-width="1.5"/>
</svg>
