<svg width="85" height="58" viewBox="0 0 85 58" fill="none" xmlns="http://www.w3.org/2000/svg">
<g opacity="0.2">
<path fill-rule="evenodd" clip-rule="evenodd" d="M47.7088 3.4259C47.4679 3.67474 46.6206 4.94531 46.6206 6.51937C46.6206 6.89623 46.6274 15.9197 46.6206 16.2433C46.6075 16.9299 46.1843 17.908 45.8356 18.2527C45.5899 18.4963 44.0805 19.857 43.9465 19.9998L44.8026 20.0133C45.0811 19.7491 47.9888 17.1941 48.293 16.8503C48.6886 16.4044 49.6317 15.2748 49.6317 13.5008L49.6366 4.15755C49.6366 2.75562 50.2958 1.97793 50.6348 1.60252C50.9835 1.21703 52.1293 0.269619 52.3324 0.0553011L51.4343 0.0289307C51.2171 0.244208 48.0077 3.11569 47.7088 3.4259ZM40.5098 38.7846L44.0703 41.868H46.4547C48.8787 41.868 51.0948 40.8395 52.5568 39.3906C54.0198 37.9398 54.5586 35.9917 54.5586 34.1693V29.1148C54.5586 27.4161 53.4815 26.428 53.1831 26.1317C53.0196 25.9706 51.9827 25.0011 51.9827 25.0011V28.879C51.9827 28.879 53.1256 30.0488 53.3514 30.2862C54.4077 31.3985 54.3961 33.4238 51.0522 36.6553C50.4665 37.2206 48.7955 38.7846 46.4963 38.7846H40.5098Z" fill="#0F393B"/>
<path fill-rule="evenodd" clip-rule="evenodd" d="M50.4132 18.0404C50.0166 18.4566 49.6359 19.4745 49.6359 20.3715V22.2855H51.5942C52.3545 22.2855 53.3595 21.5985 53.5771 21.235C53.5902 21.2082 53.5771 19.3369 53.5771 19.3369C53.5771 19.3369 54.0796 20.0503 54.6228 20.4271C54.8269 20.1716 56.6091 18.0289 58.1016 18.0169C60.5933 17.9968 60.0304 21.1137 59.0123 22.111C58.6825 22.4318 57.2107 23.7704 56.7556 24.1995C55.5785 25.3105 53.5636 24.7787 53.5636 21.9082C53.5636 21.9082 51.4012 23.9435 51.0772 24.213C50.7512 24.4824 49.6359 25.6538 49.6359 25.6538V30.6967C49.6359 33.1151 48.8331 33.9264 48.1681 34.6537C47.9093 34.9361 45.1623 37.4207 44.7947 37.6901L43.8975 37.7103C43.8975 37.7103 45.5052 36.2614 45.8273 35.9296C46.1939 35.5522 46.6209 34.7861 46.6209 33.5107C46.6209 33.1875 46.5803 25.5862 46.5803 25.5862H34.084C29.7375 25.5862 28.8084 20.804 28.7813 19.5248C28.7745 19.1479 28.7813 15.3286 28.7813 14.7359C28.7813 13.9501 28.274 12.6239 27.4639 12.2149H28.6899C28.8311 12.2739 29.6016 12.5817 29.6016 15.5136C29.6016 15.5136 29.5493 18.9255 29.5493 19.1072C29.5493 20.5935 30.7415 22.299 32.4642 22.299L46.6083 22.2855C46.6214 21.9082 47.0011 20.478 47.6806 19.7219C48.067 19.2956 51.0999 16.544 51.4467 16.2793L52.3448 16.2693C52.208 16.393 50.7411 17.6976 50.4132 18.0404ZM55.0571 20.9124C55.0571 20.9124 55.8759 21.9897 56.2662 22.2994C57.7897 23.511 58.5127 22.2098 57.4903 20.8179C57.086 20.2694 55.519 20.4276 55.0571 20.9124Z" fill="#0F393B"/>
<path fill-rule="evenodd" clip-rule="evenodd" d="M39.892 29.9456C39.892 30.6226 37.7103 32.4196 37.5826 32.5462C37.425 31.8169 36.8746 31.0115 35.2486 29.3985L37.6358 27.0319C39.2352 28.6199 39.892 28.9579 39.892 29.9456ZM44.032 2.81778C44.5108 3.29245 45.5415 4.58028 44.9229 5.19447C44.3768 5.73626 43.5295 6.59545 43.5295 6.59545C43.4869 6.28571 42.6938 5.54016 42.6938 5.54016C42.6938 5.54016 42.7005 7.82574 42.6938 8.10862C42.6667 9.14042 42.2749 9.43481 42.2749 9.43481C42.2749 9.43481 44.1984 11.3268 44.1984 13.7571C44.1984 14.9356 44.2032 16.0197 44.2032 16.2537C44.2032 16.7518 44.0765 17.1373 43.7264 17.5195C43.5537 17.7093 41.7705 19.4852 41.4992 19.7274C40.9826 20.1886 40.4395 20.2658 40.0323 20.2658H33.402C32.3579 20.2658 31.2832 19.4579 31.2832 18.65C31.2832 18.4482 31.2967 16.2124 31.2967 16.2124C31.6367 16.6032 31.9826 17.0597 32.8183 17.0477C33.4707 17.0376 34.1565 16.5294 34.3398 16.3477C34.5299 16.1573 39.3552 11.1565 39.3552 11.1565C39.3552 11.1565 37.0951 9.07953 35.6065 8.0928C34.8801 7.60998 33.9152 8.21938 33.7696 8.8537C33.313 10.843 33.7696 13.8271 33.7696 13.8271L31.939 12.0167C31.2024 11.2846 31.229 9.62851 32.1073 8.75781C32.2466 8.61925 33.5844 7.11998 35.2839 7.11998H37.9309C39.7068 7.11998 41.6491 8.87384 41.6491 8.87384C41.6491 8.87384 41.9345 8.56411 41.9345 8.26445C41.9345 7.3621 41.9006 4.92837 41.9006 4.92837C40.5643 3.6041 40.3824 2.23716 41.0228 1.60235C42.2184 0.417609 42.6527 0 42.6527 0C42.6527 0 42.6382 1.43742 44.032 2.81778ZM35.7139 16.024C35.0604 16.7025 34.9468 16.8722 34.3355 17.2356H41.8024C43.826 17.2356 43.4236 15.99 43.0609 15.3624C42.3165 14.0745 39.967 11.6816 39.967 11.6816C39.967 11.6816 35.8498 15.8807 35.7139 16.024Z" fill="#0F393B"/>
<path fill-rule="evenodd" clip-rule="evenodd" d="M27.1992 22.7617H25.9736C25.9736 22.7617 27.2906 23.479 27.2906 25.3288V31.2367C27.2906 35.0815 30.4894 38.6362 34.376 38.6362H37.6222C39.5712 38.6362 40.2551 38.1682 41.4333 37.1317C41.8652 36.751 42.4267 36.1262 42.6322 35.8994C43.3117 35.1457 44.0343 34.5363 44.0343 32.5566V30.623C44.0343 28.9516 43.0583 28.2559 42.5863 27.7884C42.284 27.4887 41.4536 26.702 41.4536 26.702V30.6628C41.4536 30.6628 42.2719 31.5268 42.6322 31.8077C44.3177 33.1272 42.9761 35.4181 41.413 35.4181C41.1005 35.4181 34.7184 35.42 34.2836 35.431C31.6584 35.4957 28.1099 33.1742 28.1099 29.2709V26.0609C28.1104 22.7618 27.1992 22.7617 27.1992 22.7617Z" fill="#0F393B"/>
<path fill-rule="evenodd" clip-rule="evenodd" d="M35.0123 29.9561C35.0123 30.6307 32.8306 32.4301 32.7039 32.5567C32.5477 31.8275 31.9958 31.022 30.3688 29.4091L32.7561 27.0424C34.3574 28.6295 35.0123 28.966 35.0123 29.9561ZM10.052 56.2306C9.66317 56.2306 6.66265 56.2258 6.23366 56.2258C5.02939 56.2258 5.12129 55.2347 5.01585 54.3875V48.9557C5.01585 48.9557 5.85158 48.9356 6.79856 48.9356C7.85676 48.9356 9.1742 48.7807 10.4559 49.4999C10.4559 49.4999 9.53403 47.2963 6.79178 47.2963H5.01585V45.5559C5.01585 45.5559 5.01585 44.0393 4.64248 43.5915C4.64248 43.5915 7.0041 43.6001 7.16516 43.6001C9.3488 43.6016 11.0367 43.5685 12.7918 44.7278C12.7918 44.7278 12.4557 41.8631 8.23836 41.8631H0C0 41.8631 1.43013 43.0766 1.39047 45.5472L1.43013 55.4452C1.43013 57.9298 2.4332 57.9983 2.4332 57.9983H10.5526C12.3928 57.9983 13.0332 56.6937 13.0332 55.987L13.0608 55.0382C13.0608 55.0372 12.4765 56.2306 10.052 56.2306ZM31.666 55.3939V48.471C31.666 45.7846 29.4519 45.0707 27.8031 45.0707C25.62 45.0707 24.9666 46.8787 24.688 47.4996C24.201 45.8143 22.4995 45.051 21.1037 45.051C18.4669 45.051 17.798 47.5399 17.798 47.5399C17.798 47.5399 17.7356 45.1363 15.6183 45.1363L13.5434 45.1411C13.5434 45.1411 14.7453 45.6311 14.7453 47.7082L14.7419 55.3954C14.7419 57.9336 15.7745 57.9777 15.7745 57.9777H19.1938C19.1053 57.9336 17.8812 57.0183 17.8812 55.3738V48.5549C17.9233 48.2519 18.4398 47.222 19.9149 47.222C20.7507 47.222 21.6691 48.0855 21.6483 49.0564L21.6454 55.392C21.6454 57.9672 22.6639 57.9744 22.6639 57.9744H26.0968C26.0968 57.9744 24.7842 57.0586 24.7842 55.3704L24.7741 48.5496C24.9027 48.1694 25.3544 47.2431 26.6501 47.2431C27.6822 47.2431 28.5465 48.1066 28.5262 49.078C28.5262 49.078 28.5194 54.8612 28.5228 55.3982C28.5383 57.9902 29.5418 57.9667 29.5418 57.9667C31.3294 57.9667 32.9747 57.9739 32.9747 57.9739C32.9747 57.9739 31.666 57.0773 31.666 55.3939ZM37.6646 55.391C37.6646 57.0974 38.982 57.9749 38.982 57.9749C38.982 57.9749 37.3493 57.9677 35.5627 57.9677C35.5627 57.9677 34.5137 57.983 34.5137 55.4107V55.3992L34.517 47.6904C34.517 45.6575 33.3287 45.1354 33.3287 45.1354H35.4036C36.1353 45.1354 37.6583 45.1354 37.6583 48.0102L37.653 55.3791L37.6646 55.391ZM48.2002 46.1039C48.2002 46.1039 47.8704 45.18 46.4499 45.18C44.3021 45.18 43.7788 47.7101 43.7788 47.7101C43.6042 45.7102 43.0635 45.1191 41.5477 45.1191L39.4729 45.1244C39.4729 45.1244 40.6753 45.6129 40.6753 47.6899L40.6714 55.3872C40.6714 57.9274 41.7035 57.9691 41.7035 57.9691H45.1228C45.0348 57.9274 43.8107 57.0116 43.8107 55.3666L43.8146 49.0646C43.9045 48.493 44.202 48.0534 44.6532 47.7638C45.7801 47.0403 47.3191 47.2119 48.2002 48.2787V46.1039ZM64.1575 46.569C65.3158 46.569 66.1801 47.0705 66.1801 47.0705L66.1903 45.1335H63.3141L63.316 42.1963C63.316 42.1963 62.5605 43.4923 61.0139 44.7513C60.0427 45.542 58.0032 46.5186 58.0032 46.5186L60.1747 46.5575L60.1709 55.4903C60.1709 57.9677 61.2155 57.9677 61.2155 57.9677C63.0916 57.9677 64.631 57.9749 64.631 57.9749C64.631 57.9749 63.3107 57.0974 63.3107 55.4682L63.3136 46.5642C64.2151 46.567 63.5946 46.569 64.1575 46.569ZM74.5558 50.4473C72.6372 52.4366 71.1316 52.125 69.9254 53.5825C69.9254 53.5844 70.1189 55.5589 71.6429 56.2555C72.1633 56.4948 74.2753 57.2504 75.644 54.9092L75.6344 56.9809C75.6344 56.9809 74.7561 57.9921 71.9683 57.9921C68.6085 57.9921 66.3073 55.3733 66.3073 51.8215C66.3073 48.3291 68.1834 45.087 71.7256 45.0687C75.1971 45.051 77.0771 47.8319 74.5558 50.4473ZM72.4559 49.6322C73.0237 48.5923 73.4705 45.9509 71.5302 46.0957C69.2822 46.2631 69.7097 52.1892 69.7097 52.1892C70.4618 51.3794 71.5897 51.2145 72.4559 49.6322ZM36.0753 44.0964C36.9565 44.0964 37.6714 43.4031 37.6714 42.5482C37.6714 41.6933 36.9565 40.9995 36.0753 40.9995C35.1941 40.9995 34.4793 41.6933 34.4793 42.5482C34.4793 43.4031 35.1941 44.0964 36.0753 44.0964ZM51.7632 56.5182C50.9831 56.5182 50.4255 55.7137 50.4255 54.889C50.4255 51.6843 53.0725 51.2418 53.78 50.3864L53.7858 55.7899C53.4729 56.0652 53.1556 56.5182 51.7632 56.5182ZM53.78 49.1494C52.9844 50.5312 46.7957 50.8242 47.7447 55.5694C48.1195 57.4513 49.3847 57.9998 50.9754 57.9998C52.5206 57.9998 53.4492 57.2 53.8385 56.4559C54.0692 57.8847 54.7971 57.9672 54.7971 57.9672C56.5851 57.9672 58.2174 57.9744 58.2174 57.9744C58.2174 57.9744 56.8855 57.097 56.8855 55.404V48.19C56.8855 46.4644 54.9558 45.1215 52.9041 45.1215C50.9328 45.1215 49.6932 46.0627 49.6932 46.0627V48.3013C49.6932 48.3013 50.3969 46.5277 52.1806 46.5277C53.9217 46.5277 54.0499 47.3874 54.0397 47.8165C54.0397 47.8165 54.2158 48.3972 53.78 49.1494ZM82.1268 54.4882C82.1456 55.3958 81.3268 56.5878 79.5847 56.5878C77.8011 56.5878 77.0891 54.7783 77.0891 54.7783V57.0711C77.0891 57.0711 78.3756 57.9801 80.347 57.9801C82.6868 57.9801 85.0523 56.2171 84.9991 53.7633C84.9822 52.8998 84.6712 52.1643 84.1963 51.5299C83.4045 50.478 81.9633 49.7425 80.8475 49.0622C80.2111 48.6733 79.8725 47.9786 79.8653 47.7341C79.8464 47.3045 80.0563 46.4366 81.7989 46.4366C83.4984 46.4366 84.2219 48.2102 84.2219 48.2102L84.2151 46.0627C84.2151 46.0627 82.9146 45.039 80.9428 45.039C78.8912 45.039 77.0292 46.3825 77.064 48.1071C77.0959 49.6222 77.7401 50.6036 78.9899 51.528C79.4837 51.8929 80.0732 52.2482 80.7552 52.6236C81.751 53.1707 82.1137 53.8405 82.1268 54.4882Z" fill="#0F393B"/>
</g>
</svg>
