<svg width="76" height="30" viewBox="0 0 76 30" fill="none" xmlns="http://www.w3.org/2000/svg">
<path opacity="0.2" d="M0 0V2.05253H14.7932V0H0ZM16.8892 0V2.05253H37.9703C37.9703 2.05253 35.817 0 32.965 0H16.8892ZM42.1057 0V2.05253H54.8595L54.1025 0H42.1057ZM64.0033 0L63.2462 2.05253H75.8842V0H64.0033ZM0 3.99165V6.04418H14.7932V3.99165H0ZM16.8892 3.99458V6.04425H40.4165C40.4165 6.04425 40.1418 4.46453 39.6624 3.99458H16.8892ZM42.1057 3.99458V6.04425H56.2578L55.5571 3.99458H42.1057ZM62.4892 3.99458L61.7885 6.04425H75.8842V3.99458H62.4892ZM4.25121 7.9833V10.0388H10.6578V7.9833H4.25121ZM21.1405 7.9833V10.0388H27.547V7.9833H21.1405ZM33.7784 7.9833V10.0388H40.185C40.185 10.0388 40.5918 8.95328 40.5918 7.9833H33.7784ZM46.357 7.9833V10.0388H57.7155L56.9584 7.9833H46.357ZM61.0939 7.9833L60.3339 10.0388H71.7487V7.9833H61.0939ZM4.25121 11.978V14.0305H10.6578V11.978H4.25121ZM21.1405 11.978V14.0305H37.5042C37.5042 14.0305 38.8731 12.9773 39.3092 11.978H21.1405ZM46.357 11.978V14.0305H52.7636V12.8879L53.1704 14.0305H64.9058L65.3422 12.8879V14.0305H71.7488V11.978H59.7223L59.0841 13.7165L58.4428 11.978H46.357ZM4.25121 15.9696V18.0221H10.6578V15.9696H4.25121ZM21.1405 15.9696V18.0221H39.3092C38.873 17.0261 37.5042 15.9696 37.5042 15.9696H21.1405ZM46.357 15.9696V18.0221H52.7636V15.9696H46.357ZM53.9273 15.9696L54.7021 18.0221H63.5015L64.2378 15.9696H53.9273ZM65.3421 15.9696V18.0221H71.7487V15.9696H65.3421ZM4.25121 19.9613V22.0137H10.6578V19.9613H4.25121ZM21.1405 19.9613V22.0137H27.547V19.9613H21.1405ZM33.7784 19.9613V22.0137H40.5917C40.5917 21.0451 40.1849 19.9613 40.1849 19.9613H33.7784ZM46.357 19.9613V22.0137H52.7636V19.9613H46.357ZM55.382 19.9613L56.1331 22.0137H62.032L62.7891 19.9613H55.382ZM65.3421 19.9613V22.0137H71.7487V19.9613H65.3421ZM0.115748 23.9529V26.0084H14.909V23.9529H0.115748ZM16.8892 23.9529V26.0084H39.6624C40.1418 25.5377 40.4165 23.9529 40.4165 23.9529H16.8892ZM42.2216 23.9529V26.0084H52.7636V23.9529H42.2216ZM56.8396 23.9529L57.6115 26.0084H60.6129L61.3372 23.9529H56.8396ZM65.3421 23.9529V26.0084H76V23.9529H65.3421ZM0.115748 27.9475V30H14.909V27.9475H0.115748ZM16.8892 27.9475V29.9971H32.965C35.817 29.9971 37.9703 27.9475 37.9703 27.9475H16.8892ZM42.2216 27.9475V30H52.7636V27.9475H42.2216ZM58.3032 27.9475L59.0455 29.9942L59.1731 29.9971L59.9272 27.9475H58.3032ZM65.3421 27.9475V30H76V27.9475H65.3421Z" fill="#0F393B"/>
</svg>
