<svg width="85" height="35" viewBox="0 0 85 35" fill="none" xmlns="http://www.w3.org/2000/svg">
<path opacity="0.2" d="M70.9178 18.6874C70.8486 22.5911 71.673 24.6586 74.8194 24.6586C77.9607 24.6586 78.4114 21.1365 78.4114 18.4563C78.4114 15.7743 77.8153 13.1707 74.5151 13.1707C72.4904 13.1707 70.9956 14.7797 70.9178 18.6874ZM64.5524 35V8.57609H70.9956V9.64791C70.9956 11.0776 71.5594 10.4881 72.0137 9.93089C72.0898 9.83778 73.5258 8.04014 76.7598 8.04014C79.9841 8.04014 85 10.3372 85 18.4563C85 24.7365 82.0076 29.3311 76.8394 29.3311C73.9916 29.3311 72.3452 28.1844 71.9687 27.7216C71.5917 27.2652 71.0683 27.1856 71.0683 27.7216V34.9999H64.5524V35ZM14.7515 0H21.7165V18.6874C21.7165 21.9019 20.367 28.6437 10.708 28.6437C1.04799 28.6437 0 22.3599 0 18.8395V15.3934H6.74019V18.7617C6.74019 20.8294 8.08853 22.7432 10.6332 22.7432C13.1789 22.7432 14.7515 21.2886 14.7515 18.8395V0ZM36.2824 15.8527C36.2824 13.936 35.2361 12.0982 32.8397 12.0982C30.5182 12.0982 29.6938 13.7815 29.6938 15.8527H36.2824ZM32.168 7.81024C37.6377 7.81024 42.4283 9.95395 42.4283 19.8341H29.4742C29.4742 22.9743 30.7459 24.2766 32.9924 24.2766C35.2395 24.2766 35.9878 22.4371 35.9878 22.4371H42.355C42.355 25.2719 38.5353 29.1012 32.7676 29.0252C26.1796 29.0252 22.9588 24.0467 22.9588 18.915C22.9588 13.7815 25.8026 7.81024 32.168 7.81024ZM56.9913 15.8527C56.9913 13.936 55.9438 12.0982 53.5474 12.0982C51.2271 12.0982 50.4009 13.7815 50.4009 15.8527H56.9913ZM52.8769 7.81024C58.346 7.81024 63.1353 9.95395 63.1353 19.8341H50.1818C50.1818 22.9743 51.4547 24.2766 53.703 24.2766C55.9478 24.2766 56.6972 22.4371 56.6972 22.4371H63.0644C63.0644 25.2719 59.2441 29.1012 53.4782 29.0252C46.8867 29.0252 43.6659 24.0467 43.6659 18.915C43.6659 13.7815 46.5131 7.81024 52.8769 7.81024Z" fill="#0F393B"/>
</svg>
