<svg width="53" height="40" viewBox="0 0 53 40" fill="none" xmlns="http://www.w3.org/2000/svg">
<path fill-rule="evenodd" clip-rule="evenodd" d="M52.9991 6.62247V32.316C52.9991 35.2799 52.0766 37.1724 50.7271 38.2805C49.4351 39.3414 48.0144 39.4621 47.4218 39.4621C47.3035 39.4621 46.7221 39.4543 45.7808 39.4418C39.3298 39.3555 15.9785 39.0431 9.01762 39.4595C5.63869 39.6615 3.33768 39.098 1.87952 38.0218C0.425158 36.9484 -0.0456728 35.4614 0.113053 34.2464V6.75174C-0.0878536 5.65578 -0.021721 4.65763 0.317329 3.78026C0.67424 2.85667 1.28932 2.18197 1.97804 1.71143C3.29546 0.811332 4.92708 0.616945 5.9919 0.664357C11.3185 0.864157 19.6469 1.10382 27.3222 1.17371C31.1619 1.20868 34.8283 1.20105 37.8693 1.12531C40.9447 1.04872 43.2827 0.903896 44.524 0.685736C47.6049 0.144258 49.833 0.830202 51.2653 2.25645C52.6228 3.60817 53.0212 5.38805 52.9991 6.62247ZM49.1485 4.38226C48.5802 3.81633 47.4306 3.22088 45.0433 3.64045C43.5504 3.90281 40.9987 4.04831 37.944 4.12438C34.855 4.20131 31.1509 4.2087 27.2949 4.17359C19.5813 4.10335 11.2202 3.86263 5.87384 3.66204L5.86185 3.66159C5.16775 3.62998 4.26104 3.78496 3.67042 4.18849C3.4038 4.37065 3.22143 4.58793 3.11565 4.86164C3.00815 5.13983 2.93591 5.59081 3.08256 6.30704C3.10284 6.40606 3.11305 6.50687 3.11305 6.60794V34.3582C3.11305 34.4454 3.10544 34.5325 3.09031 34.6184C3.06899 34.7394 3.0646 35.1678 3.66101 35.608C4.31341 36.0895 5.78983 36.6471 8.83852 36.4648C15.9943 36.0368 40.0771 36.3636 46.0748 36.445C46.8598 36.4557 47.335 36.4621 47.4218 36.4621C47.6687 36.4621 48.2866 36.4027 48.8233 35.9619C49.3026 35.5684 49.9991 34.6378 49.9991 32.316V6.60794C49.9991 6.60177 49.9991 6.59561 49.9992 6.58944C49.9992 6.58499 49.9993 6.58054 49.9994 6.57609C50.0131 5.92909 49.7853 5.01638 49.1485 4.38226ZM16.4554 10.7451C15.6769 10.8951 14.7801 11.3182 13.8043 12.255C12.856 13.1653 12.4651 14.0198 12.3508 14.7731C12.2339 15.5426 12.3842 16.3531 12.7642 17.1903C13.4474 18.6952 14.7824 20.0792 15.9838 21.0034C16.1747 20.9698 16.3669 20.9421 16.5602 20.9205C19.8718 20.212 21.3704 18.8524 22.033 17.6558C22.7585 16.3458 22.6715 14.8968 22.3362 13.9134C21.5656 12.836 20.257 11.5658 18.7639 10.9896C18.0092 10.6983 17.2372 10.5944 16.4554 10.7451ZM21.9345 21.9811C23.1665 21.1694 24.058 20.1917 24.6575 19.1091C25.9532 16.7693 25.6957 14.2708 25.0767 12.6732C25.0354 12.5666 24.982 12.465 24.9177 12.3705C23.9525 10.954 22.1582 9.08386 19.8441 8.19078C18.6611 7.73423 17.3151 7.52425 15.8877 7.7993C14.4569 8.07502 13.0533 8.8172 11.7267 10.0908C10.3725 11.3909 9.61216 12.825 9.38476 14.3227C9.15984 15.8042 9.47724 17.2072 10.0326 18.4304C10.684 19.8653 11.6996 21.1377 12.7458 22.1582C9.71622 23.7962 7.34629 26.684 5.95835 29.0293C5.53643 29.7422 5.77235 30.6622 6.48528 31.0841C7.19821 31.506 8.11819 31.2701 8.54011 30.5572C10.1336 27.8647 12.8871 24.8934 15.9457 24.0812C16.3157 24.0243 16.6736 23.9601 17.0196 23.8889C18.1629 23.7847 19.3685 24.0007 20.6337 24.6874C22.3126 25.5986 24.1846 27.3892 26.1127 30.5707C26.5421 31.2791 27.4645 31.5054 28.173 31.076C28.8814 30.6466 29.1077 29.7242 28.6783 29.0157C26.58 25.5536 24.3622 23.2977 22.0648 22.0507C22.0214 22.0271 21.9779 22.0039 21.9345 21.9811ZM27.6943 11.1729C27.6943 10.3445 28.3659 9.6729 29.1943 9.6729H46.4625C47.291 9.6729 47.9625 10.3445 47.9625 11.1729C47.9625 12.0013 47.291 12.6729 46.4625 12.6729H29.1943C28.3659 12.6729 27.6943 12.0013 27.6943 11.1729ZM27.6943 19.2217C27.6943 18.3933 28.3659 17.7217 29.1943 17.7217H46.4625C47.291 17.7217 47.9625 18.3933 47.9625 19.2217C47.9625 20.0501 47.291 20.7217 46.4625 20.7217H29.1943C28.3659 20.7217 27.6943 20.0501 27.6943 19.2217ZM30.0927 27.1503C30.0927 26.3219 30.7642 25.6503 31.5927 25.6503H46.4625C47.291 25.6503 47.9625 26.3219 47.9625 27.1503C47.9625 27.9788 47.291 28.6503 46.4625 28.6503H31.5927C30.7642 28.6503 30.0927 27.9788 30.0927 27.1503Z" fill="#347362"/>
</svg>
