<svg width="43" height="43" viewBox="0 0 43 43" fill="none" xmlns="http://www.w3.org/2000/svg">
<path fill-rule="evenodd" clip-rule="evenodd" d="M20.392 0.801242C21.0541 0.303336 21.9945 0.436445 22.4924 1.09855C24.5012 3.76987 27.5975 10.8389 23.4463 17.6261C23.014 18.3328 22.0907 18.5553 21.384 18.123C20.6772 17.6908 20.4548 16.7675 20.887 16.0607C24.1197 10.7753 21.7446 5.09562 20.0947 2.90162C19.5968 2.23952 19.7299 1.29915 20.392 0.801242ZM30.8252 4.57919C32.1004 3.56041 33.7991 3.39838 34.8679 3.47233C34.9427 3.47751 35.0171 3.48829 35.0903 3.5046C37.8739 4.12431 39.5065 5.51449 39.9853 7.40532C40.4205 9.12429 39.7616 10.7737 39.1379 11.7272C39.0456 11.8682 38.9303 11.9927 38.7966 12.0954C37.8396 12.831 36.2032 13.7366 34.459 13.7877C33.5461 13.8145 32.5647 13.6056 31.6818 12.9734C30.8039 12.3448 30.1536 11.3911 29.7289 10.1575C29.3202 8.97057 29.1984 7.87847 29.4034 6.89862C29.614 5.89168 30.1457 5.12203 30.8252 4.57919ZM32.3398 7.51275C32.2768 7.81391 32.2756 8.33912 32.5654 9.18079C32.8392 9.9758 33.1722 10.3508 33.4283 10.5342C33.6794 10.714 33.9827 10.8004 34.3711 10.789C35.1462 10.7663 36.0633 10.3529 36.7538 9.87355C37.0499 9.33163 37.2101 8.66719 37.0771 8.14172C36.9716 7.72528 36.5598 6.93182 34.5538 6.45934C33.8629 6.43163 33.1119 6.59218 32.6977 6.92305C32.5218 7.06362 32.3971 7.23869 32.3398 7.51275ZM8.78988 4.00955C9.31963 3.37264 10.2654 3.28577 10.9023 3.81552C11.6931 4.47324 12.7432 5.65108 13.4823 7.1601C14.2283 8.68313 14.7047 10.6484 14.1364 12.7773C13.9228 13.5777 13.1007 14.0533 12.3003 13.8397C11.4999 13.626 11.0243 12.804 11.2379 12.0036C11.5677 10.7679 11.3165 9.55839 10.7881 8.47972C10.2529 7.38703 9.48202 6.53628 8.98392 6.12198C8.347 5.59223 8.26013 4.64647 8.78988 4.00955ZM2.54135 8.32527C3.56783 7.81629 6.16108 7.18671 8.3015 9.02634C10.45 10.8729 10.017 13.2188 9.40902 14.3117C9.04615 15.0841 8.27358 15.8434 7.12626 16.2052C5.91438 16.5873 4.40921 16.4937 2.63172 15.7545C1.67487 15.3566 0.891595 14.7902 0.426395 13.9942C-0.0570289 13.1669 -0.0784185 12.296 0.110812 11.5532C0.456691 10.1954 1.53566 9.08566 2.27084 8.4977C2.35459 8.43072 2.44528 8.37291 2.54135 8.32527ZM4.00486 10.9573C3.80218 11.1338 3.59196 11.3483 3.4131 11.5783C3.18563 11.8708 3.06232 12.1196 3.01797 12.2937C2.98382 12.4278 3.0056 12.4628 3.01494 12.4779C3.01553 12.4788 3.01608 12.4797 3.01655 12.4805C3.04274 12.5253 3.1939 12.7392 3.78369 12.9845C5.09951 13.5317 5.86025 13.4588 6.22413 13.344C6.55912 13.2384 6.67403 13.0663 6.69005 13.0423C6.6922 13.0391 6.69257 13.0385 6.69146 13.0411C6.71934 12.9755 6.75186 12.9119 6.78878 12.8509C6.82993 12.7829 6.92522 12.546 6.90373 12.2576C6.88638 12.0248 6.79057 11.6835 6.34607 11.3015C5.91475 10.9308 5.43436 10.8006 4.96651 10.7948C4.56783 10.7899 4.21777 10.8777 4.00486 10.9573ZM11.3161 15.3692C11.588 14.7563 12.2337 14.3983 12.8976 14.4924C16.6499 15.024 24.4555 18.8534 28.437 29.5557C28.7081 30.2847 28.3771 31.1 27.6746 31.4337C24.6654 32.8627 15.8143 36.677 4.19198 40.6514C3.64904 40.8371 3.04775 40.6967 2.6431 40.2899C2.23845 39.883 2.10136 39.281 2.28997 38.7391C3.91426 34.0719 7.99698 22.85 11.3161 15.3692ZM13.5656 17.7107C10.9709 23.7075 7.99942 31.672 6.16244 36.7901C14.913 33.6968 21.7407 30.8325 25.1104 29.3128C21.854 21.7026 16.5292 18.5983 13.5656 17.7107ZM40.767 23.1C35.1173 19.9372 29.1948 21.2713 27.0462 22.2825C26.2966 22.6353 25.403 22.3136 25.0502 21.5641C24.6975 20.8145 25.0191 19.9209 25.7687 19.5681C28.5261 18.2704 35.509 16.7183 42.2325 20.4823C42.9553 20.887 43.2133 21.8011 42.8086 22.5239C42.4039 23.2468 41.4899 23.5047 40.767 23.1ZM37.8659 33.6575C35.6747 31.6454 32.6814 31.7302 31.5178 32.027C30.7151 32.2317 29.8984 31.7469 29.6937 30.9441C29.489 30.1414 29.9738 29.3247 30.7765 29.12C32.5233 28.6746 36.6978 28.512 39.8949 31.4477C40.5051 32.008 40.5456 32.9569 39.9853 33.5671C39.425 34.1773 38.4761 34.2178 37.8659 33.6575ZM33.6459 33.6058C35.0701 34.1854 36.8058 35.4223 37.0064 37.6108C37.1634 39.3235 36.3376 40.5498 35.3644 41.299C34.4484 42.004 33.3604 42.3374 32.6163 42.4473C31.1472 42.6696 27.8423 42.2595 26.6127 38.7369C26.0318 37.0727 26.2365 35.6331 27.0898 34.584C27.8021 33.7083 28.7966 33.3203 29.5393 33.1929C30.1345 33.0056 30.8183 32.9968 31.4108 33.0535C32.1157 33.1209 32.8978 33.3013 33.6459 33.6058ZM30.4597 36.0485C30.4543 36.0495 30.4525 36.0499 30.4542 36.0492C30.3354 36.0964 30.2112 36.1283 30.0844 36.144C29.8415 36.1741 29.5573 36.3046 29.4171 36.477C29.3627 36.544 29.3106 36.6377 29.2907 36.7983C29.2695 36.9699 29.2793 37.2732 29.4451 37.7482C30.0104 39.3677 31.4731 39.587 32.1682 39.481L32.1764 39.4797C32.5548 39.4242 33.1235 39.238 33.5344 38.9217C33.8895 38.6484 34.0615 38.3491 34.019 37.8847C33.9701 37.352 33.5231 36.7947 32.515 36.3844C32.0471 36.194 31.5507 36.0805 31.1252 36.0398C30.7112 36.0002 30.4973 36.0413 30.4597 36.0485Z" fill="#347362"/>
</svg>
