<svg width="100" height="22" viewBox="0 0 100 22" fill="none" xmlns="http://www.w3.org/2000/svg">
<g opacity="0.2">
<path fill-rule="evenodd" clip-rule="evenodd" d="M49.5216 8.24126H43.9007V0.164306H37.8864V21.5515H43.9007V13.4745H49.5216V21.5515H55.5359V0.164306H49.5216V8.24126ZM70.0948 21.5515H81.6176V16.5458H76.1096V13.4745H81.1689V8.46884H76.1096V5.39759H81.6176V0.164306H70.0948V21.5515ZM62.8995 0.164306H56.8847V21.5515H68.9143V16.5458H62.8995V0.164306ZM26.3071 0C20.3033 0 15.4147 4.54443 15.4366 11C15.4585 17.6265 20.3038 22 26.3071 22C32.3104 22 37.1991 17.4556 37.1777 11C37.1552 4.37347 32.3104 0 26.3071 0ZM26.3071 16.2688C23.6291 16.2688 21.4443 13.9863 21.458 11C21.4728 7.67286 23.6291 5.73119 26.3071 5.73119C28.9851 5.73119 31.1409 7.67286 31.1563 11C31.1711 14.3277 28.9846 16.2688 26.3071 16.2688Z" fill="#0F393B"/>
<path fill-rule="evenodd" clip-rule="evenodd" d="M18.3812 0.391968H10.9616L6.01481 6.9902V0.391968H0V21.5516H6.01481V14.1568L11.5798 21.5516H19.2803L10.7367 10.5166L18.3812 0.391968ZM94.0406 13.0761C94.7153 12.6781 97.9188 10.5732 97.4701 6.19367C97.0203 1.81408 93.6473 0.391968 91.0055 0.391968H82.7987V21.5516H88.8135V14.783L93.2545 21.5516H100L94.0406 13.0761ZM90.1618 9.20831H88.8129V5.39768H90.2743C91.2298 5.39768 91.9605 6.07987 91.9605 7.21779C91.961 8.35515 91.5677 9.20831 90.1618 9.20831Z" fill="#0F393B"/>
</g>
</svg>
