<svg width="63" height="64" viewBox="0 0 63 64" fill="none" xmlns="http://www.w3.org/2000/svg">
<g opacity="0.2">
<path fill-rule="evenodd" clip-rule="evenodd" d="M34.6224 61.4077C34.3725 62.1592 33.5582 64 31.5931 64C29.3611 64 28.5822 61.5751 28.5443 61.4757L28.4805 61.2432C28.4805 61.2432 30.4041 61.4034 31.4632 61.4034C32.5224 61.4034 34.3317 61.3003 34.6281 61.2432L34.6224 61.4077Z" fill="#0F393B"/>
<path fill-rule="evenodd" clip-rule="evenodd" d="M40.4819 60.2124L40.9431 60.2739C40.3957 61.7042 39.4134 63.3077 37.4833 63.3077C35.6152 63.3077 34.6891 62.2221 34.2938 61.4919L33.9711 61.2934C33.9714 61.293 37.2023 61.1863 40.4819 60.2124ZM22.772 60.2124L22.3115 60.2739C22.8579 61.7042 23.841 63.3077 25.7718 63.3077C27.6395 63.3077 28.6485 62.1613 29.0625 61.4919L29.2829 61.2934C29.2825 61.293 26.0523 61.1863 22.772 60.2124Z" fill="#0F393B"/>
<path fill-rule="evenodd" clip-rule="evenodd" d="M33.1586 61.5569C32.8564 61.9963 32.6545 61.9757 32.2895 61.9757C32.1071 61.9757 31.833 62.1276 31.8416 62.4024C31.8474 62.618 32.0227 62.798 32.3205 62.798C32.9798 62.798 33.4821 61.8741 33.6235 61.4835C33.6235 61.4835 34.0137 61.4665 34.1277 61.4553C34.1277 61.4553 33.4284 63.5423 31.6166 63.5423C29.8008 63.5423 29.0615 61.4777 29.0615 61.4777C29.0615 61.4777 30.5892 61.5724 31.4648 61.5724C32.3404 61.5724 32.8965 61.5685 33.1586 61.5569ZM40.2393 60.6387C39.0546 60.9587 38.2136 61.2173 36.2251 61.46C36.2251 61.46 36.2871 61.6661 36.7195 61.643C36.8858 61.6346 36.907 61.5934 36.9687 61.5822C37.0913 61.5598 37.2799 61.6889 37.2576 61.9059C37.2414 62.057 37.1119 62.2483 36.6716 62.2483C36.2312 62.2483 35.7166 61.8867 35.458 61.5518C35.458 61.5518 35.1933 61.6126 34.92 61.6281C34.92 61.6281 35.766 62.8169 37.4354 62.8169C39.2724 62.8172 39.9504 61.1714 40.2393 60.6387Z" fill="#F5F3EE"/>
<path fill-rule="evenodd" clip-rule="evenodd" d="M23.0156 60.638C24.1995 60.9581 25.0409 61.2167 27.0294 61.4593C27.0294 61.4593 26.9674 61.6655 26.535 61.6423C26.3684 61.634 26.3471 61.5928 26.2854 61.5816C26.1632 61.5591 25.9742 61.6882 25.9973 61.9052C26.0132 62.0564 26.1423 62.2477 26.5826 62.2477C27.0229 62.2477 27.5375 61.8861 27.7957 61.5512C27.7957 61.5512 28.0615 61.6119 28.3349 61.6275C28.3349 61.6275 27.4885 62.8162 25.8191 62.8162C23.9821 62.8166 23.3037 61.1707 23.0156 60.638ZM31.4432 50.8462C37.7726 50.8462 44.7858 46.9502 49.703 41.3331C50.2349 40.7263 51.1379 39.5752 53.2783 39.5752C55.4183 39.5752 58.2636 41.531 57.9286 45.0924C57.6848 47.689 53.9837 53.5408 47.6542 57.1482C41.3248 60.7556 35.4963 61.5316 31.4435 61.5316C27.3908 61.5316 21.5622 60.7556 15.2325 57.1482C8.90303 53.5408 5.20224 47.689 4.95773 45.0924C4.6227 41.531 7.46808 39.5752 9.60842 39.5752C11.7488 39.5752 12.6521 40.7267 13.1837 41.3331C18.1009 46.9502 25.1137 50.8462 31.4432 50.8462Z" fill="#F5F3EE"/>
<path d="M31.4412 50.6186C34.508 50.6186 37.7411 49.6907 40.8147 48.0893C44.0175 46.421 47.0439 44.0244 49.5305 41.1841C49.8045 40.872 50.1727 40.4192 50.7617 40.0369C51.3542 39.6522 52.1548 39.3477 53.2763 39.3477C53.3925 39.3477 53.5165 39.3542 53.6467 39.3661C54.6785 39.4641 55.8126 39.9643 56.6875 40.8351C57.5631 41.7067 58.1816 42.9478 58.1816 44.5249C58.1816 44.7108 58.1726 44.9072 58.1528 45.1148C58.0125 46.6058 56.7773 49.1247 54.5944 51.6866C52.8814 53.6962 50.581 55.7417 47.7648 57.3463C44.5783 59.1621 41.518 60.2662 38.7447 60.9153C33.9406 62.0412 28.9422 62.0412 24.1381 60.9153C21.3652 60.2662 18.3049 59.1621 15.1184 57.3463C12.3022 55.7413 10.0017 53.6959 8.28873 51.6866C6.10583 49.1247 4.87031 46.6058 4.73002 45.1148C4.71122 44.9187 4.70159 44.7219 4.70117 44.5249C4.70117 42.9478 5.31965 41.7067 6.19563 40.8351C7.07015 39.9643 8.20398 39.4641 9.23538 39.3661C9.36629 39.3542 9.49035 39.3477 9.60647 39.3477C10.7273 39.3477 11.529 39.6522 12.1208 40.0369C12.7101 40.4192 13.0786 40.872 13.3523 41.1841C15.8389 44.0244 18.866 46.4207 22.0681 48.0893C25.1417 49.6907 28.3741 50.6186 31.4412 50.6186ZM31.4412 51.075C28.2994 51.075 24.9949 50.1286 21.8578 48.4947C18.6082 46.8015 15.5356 44.3676 13.0105 41.4842C12.7526 41.1899 12.4039 40.7631 11.8734 40.4185C11.3458 40.076 10.6256 39.8048 9.60611 39.8048C9.49655 39.8047 9.38704 39.8096 9.27794 39.8196C8.34318 39.9078 7.31322 40.3642 6.51551 41.158C5.71887 41.9511 5.15629 43.0827 5.15629 44.5253C5.15629 44.7083 5.16458 44.8906 5.18153 45.0721C5.31424 46.4832 6.51226 48.9019 8.63349 51.3911C10.3162 53.3653 12.5763 55.375 15.3423 56.9514C18.4856 58.7426 21.5048 59.8311 24.2412 60.4716C26.6015 61.0248 29.0173 61.3042 31.4412 61.3045C33.8651 61.3042 36.2809 61.0248 38.6412 60.4716C41.3784 59.8311 44.3972 58.7426 47.5401 56.9514C50.3062 55.375 52.5666 53.3653 54.2493 51.3904C56.3709 48.9012 57.5689 46.4836 57.7013 45.0721C57.7182 44.8913 57.7265 44.7083 57.7265 44.5253C57.7265 43.0831 57.1636 41.9515 56.3669 41.158C55.5696 40.3642 54.5393 39.9078 53.6045 39.8196C53.4954 39.8096 53.3859 39.8047 53.2763 39.8048C52.2572 39.8048 51.5366 40.076 51.009 40.4185C50.4786 40.7631 50.1295 41.1899 49.8723 41.4842C47.3472 44.3676 44.275 46.8015 41.025 48.494C37.8882 50.1286 34.5834 51.075 31.4412 51.075Z" fill="#0F393B"/>
<path fill-rule="evenodd" clip-rule="evenodd" d="M12.4708 41.8918L12.3968 41.8079C11.893 41.2279 11.2028 40.4326 9.55433 40.4326C8.59289 40.4326 7.50414 40.9483 6.78072 41.7457C6.23977 42.341 5.62634 43.388 5.77708 44.9886C5.98264 47.1755 9.44542 52.8471 15.6118 56.3619C20.5821 59.1943 25.8902 60.6311 31.3894 60.6311C36.8887 60.6311 42.1965 59.1943 47.167 56.3619C53.3331 52.8471 56.7962 47.1755 57.0018 44.9886C57.1518 43.388 56.5391 42.3414 55.9974 41.7457C55.2747 40.9483 54.1853 40.4326 53.2245 40.4326C51.5765 40.4326 50.8862 41.2279 50.3817 41.8079L50.3085 41.8918C45.009 47.9443 37.7596 51.7036 31.3894 51.7036C25.0196 51.7036 17.7699 47.9447 12.4708 41.8918Z" fill="#0F393B"/>
<path fill-rule="evenodd" clip-rule="evenodd" d="M51.7754 34.7526C51.7754 31.7072 54.2363 29.2383 57.2736 29.2383C60.3108 29.2383 62.7725 31.7072 62.7725 34.7526C62.7725 37.7977 60.3108 40.2662 57.2736 40.2662C54.2363 40.2662 51.7754 37.7977 51.7754 34.7526Z" fill="#F5F3EE"/>
<path d="M51.5469 34.7527C51.5469 33.1669 52.1877 31.7311 53.2245 30.6918C54.2599 29.6524 55.692 29.0098 57.2733 29.0098C58.8547 29.0098 60.2864 29.6524 61.3229 30.6918C62.3593 31.7311 62.9998 33.1669 62.9998 34.7527C62.9998 36.3385 62.359 37.7738 61.3229 38.8128C60.2868 39.8518 58.8547 40.4945 57.2733 40.4945C55.692 40.4945 54.2606 39.8518 53.2245 38.8128C52.6918 38.2804 52.2693 37.6475 51.9814 36.9507C51.6935 36.2539 51.5458 35.5069 51.5469 34.7527ZM52.0024 34.7527C52.0024 36.2119 52.5927 37.5333 53.5462 38.4899C54.4997 39.4464 55.8178 40.0381 57.273 40.0381C58.7281 40.0381 60.0459 39.4461 61.0005 38.4899C61.4906 37.9996 61.8793 37.4171 62.1443 36.7758C62.4092 36.1344 62.5452 35.4469 62.5443 34.7527C62.5452 34.0584 62.4093 33.3708 62.1443 32.7294C61.8794 32.0879 61.4906 31.5054 61.0005 31.0151C60.0462 30.0585 58.7281 29.4669 57.273 29.4669C55.8178 29.4669 54.5001 30.0585 53.5462 31.0151C53.0559 31.5053 52.6671 32.0878 52.4021 32.7293C52.1372 33.3707 52.0013 34.0584 52.0024 34.7527Z" fill="#0F393B"/>
<path fill-rule="evenodd" clip-rule="evenodd" d="M0.228516 34.7614C0.228516 31.7168 2.69054 29.2478 5.72741 29.2478C8.76392 29.2478 11.226 31.7168 11.226 34.7614C11.226 37.8072 8.76392 40.2758 5.72741 40.2758C2.69054 40.2758 0.228516 37.8072 0.228516 34.7614Z" fill="#F5F3EE"/>
<path d="M0 34.7612C0 33.1761 0.640841 31.7404 1.67729 30.7011C2.20849 30.1671 2.83967 29.7437 3.53455 29.4551C4.22944 29.1665 4.97434 29.0184 5.72645 29.0194C7.30746 29.0194 8.73916 29.6624 9.77526 30.7011C10.3077 31.2337 10.73 31.8665 11.0178 32.5633C11.3055 33.2601 11.4532 34.007 11.4522 34.7612C11.4522 36.347 10.8113 37.7828 9.77526 38.8221C9.24417 39.3562 8.61308 39.7797 7.91826 40.0684C7.22343 40.3572 6.47857 40.5053 5.72645 40.5045C4.14509 40.5045 2.71375 39.8611 1.67729 38.8221C0.640841 37.7831 0 36.3467 0 34.7612ZM0.455116 34.7612C0.45417 35.4556 0.590077 36.1432 0.855026 36.7847C1.11997 37.4262 1.50874 38.0088 1.99898 38.4992C2.48788 38.9907 3.06884 39.3806 3.70846 39.6463C4.34809 39.912 5.03377 40.0483 5.72609 40.0474C7.1816 40.0474 8.49898 39.4554 9.45285 38.4992C9.94309 38.0088 10.3319 37.4262 10.5968 36.7847C10.8618 36.1432 10.9977 35.4556 10.9967 34.7612C10.9967 33.302 10.4067 31.9805 9.45285 31.024C8.49898 30.0675 7.1816 29.4758 5.72609 29.4758C5.03377 29.4749 4.34809 29.6112 3.70846 29.8769C3.06884 30.1426 2.48788 30.5324 1.99898 31.024C1.50886 31.5143 1.12016 32.0968 0.85522 32.7381C0.590276 33.3795 0.454304 34.067 0.455116 34.7612Z" fill="#0F393B"/>
<path fill-rule="evenodd" clip-rule="evenodd" d="M58.7783 19.9217L58.8086 18.4451C59.258 18.7855 60.1137 18.7988 60.6146 18.2622C60.8451 18.017 60.9738 17.6427 60.9533 17.2514C60.925 16.7937 60.7305 16.3623 60.4066 16.0388C58.5547 14.2291 56.9178 12.4202 56.9178 12.4202C56.7523 12.1526 56.4797 11.9547 56.3311 11.8882C56.0992 11.7848 55.2986 11.4173 54.6877 12.3489C54.1341 13.1934 54.2163 14.3882 54.3159 14.8222L56.0534 17.1895C56.6459 17.9428 58.316 19.5485 58.7783 19.9217ZM21.7549 4.56673C23.9381 3.83295 25.9306 3.2272 28.617 2.98779L21.7549 4.56673Z" fill="#0F393B"/>
<path fill-rule="evenodd" clip-rule="evenodd" d="M21.7562 4.57248C23.9394 3.83762 25.9319 3.23295 28.6182 2.99319L29.0275 2.76137C27.5255 1.57735 26.0354 0.771973 24.5521 0.771973C23.6206 0.771973 21.7273 1.40557 21.3018 4.75439L21.7562 4.57248ZM41.1354 4.57248C38.9517 3.83762 36.96 3.23295 34.2736 2.99319L33.8643 2.76137C35.366 1.57735 36.8558 0.771973 38.339 0.771973C39.2709 0.771973 41.1649 1.40557 41.5898 4.75439L41.1354 4.57248ZM29.654 2.6565C30.0979 2.63371 31.1225 2.61093 31.5325 2.61093C31.9418 2.61093 33.0738 2.66517 33.3216 2.68398L29.654 2.6565Z" fill="#0F393B"/>
<path fill-rule="evenodd" clip-rule="evenodd" d="M28.9775 2.87977C30.0757 0.768854 31.0818 0 31.6383 0C32.3343 0 33.1493 1.11097 33.788 2.54054L33.9232 2.86241L33.3675 2.81648C32.9892 2.74849 31.9419 2.73692 31.5326 2.73692C31.1226 2.73692 30.2347 2.73692 29.6995 2.78248L28.9775 2.87977Z" fill="#0F393B"/>
<path fill-rule="evenodd" clip-rule="evenodd" d="M26.8282 52.8633L25.8451 56.5412L24.0123 52.1071L22.8717 51.8004L21.4818 57.0012L22.7191 57.3339L23.7098 53.6263L25.5717 58.1002L26.6832 58.3989L28.0727 53.1974L26.8282 52.8633ZM31.1002 53.5204L29.6905 53.4462L29.4099 58.8228L30.8193 58.8969L31.1002 53.5204ZM32.366 53.4744L32.4648 54.1829L33.9686 53.9703L34.6167 58.5939L36.0145 58.3968L35.3661 53.7739L36.8472 53.5649L36.7487 52.8571L32.366 53.4744ZM46.911 51.2825C47.5936 52.4825 47.4562 53.3555 46.4032 53.9652L45.9037 54.2541L43.9293 50.8261L44.4688 50.5133C45.7292 49.7839 46.44 50.433 46.911 51.2825ZM44.1648 49.8609L42.3454 50.914L45.0389 55.5929L46.845 54.5474C48.7242 53.4589 48.898 51.8167 48.1613 50.505C47.2716 48.9445 45.811 48.908 44.1648 49.8609ZM40.7564 56.4855L40.2205 54.8321L41.8116 54.3135L41.5884 53.6256L39.9977 54.1438L39.54 52.732L41.1748 52.2L40.9544 51.5194L37.9706 52.4919L39.6295 57.612L42.9202 56.5405L42.697 55.8526L40.7564 56.4855ZM20.3296 50.5531L18.7396 53.4292C18.2599 54.2965 17.7655 54.8454 16.9566 54.3771C16.1538 53.9316 16.3396 53.2661 16.8307 52.3769L18.424 49.4935L17.1402 48.7799L15.4571 51.8243C14.5288 53.5041 15.6994 54.5388 16.6068 55.0429C17.5837 55.5861 19.0025 55.99 19.9228 54.3247L21.6131 51.2662L20.3296 50.5531ZM19.4201 18.927V44.1372L31.4417 51.8865L43.463 44.1372L43.4785 18.9668C43.0973 18.6247 42.2967 17.8757 41.6663 17.4888H21.1619C20.6379 17.8569 19.5979 18.7332 19.4201 18.927Z" fill="#F5F3EE"/>
<path d="M19.6479 18.9272V44.0133L31.4419 51.6162L43.236 44.0133L43.2508 18.967H43.7066L43.6911 44.1374V44.2611L43.5862 44.3291L31.5645 52.0787L31.4419 52.1579L31.319 52.0787L19.2977 44.3291L19.1924 44.2611V18.9272H19.6479Z" fill="#0F393B"/>
<path d="M43.3272 19.1379C43.2187 19.0402 43.3005 19.1129 43.1855 19.0087H43.184C42.774 18.637 42.0866 18.0142 41.5479 17.6837L41.7851 17.2949C42.3668 17.6526 43.0704 18.2898 43.4906 18.6699H43.4891L43.6316 18.7972L43.3272 19.1379Z" fill="#0F393B"/>
<path d="M41.6655 17.7166H21.1611V17.2603H41.6655V17.7166Z" fill="#0F393B"/>
<path d="M21.2917 17.6764C21.0461 17.8493 20.6995 18.1227 20.3825 18.3842C20.0114 18.6908 19.6764 18.983 19.5863 19.0818L19.252 18.7733C19.3522 18.663 19.7063 18.3531 20.0944 18.0326C20.4316 17.7542 20.7911 17.4696 21.0299 17.3018L21.2917 17.6764Z" fill="#0F393B"/>
<path fill-rule="evenodd" clip-rule="evenodd" d="M32.29 29.7105C32.2063 29.6736 31.907 29.9155 31.7703 30.1325C31.6337 30.3495 31.5936 30.629 31.7873 30.7317C31.981 30.8344 32.2247 30.7014 32.2832 30.3611C32.3167 30.1611 32.3816 29.7502 32.29 29.7105ZM29.9888 30.3607C30.039 30.7028 30.2903 30.8344 30.484 30.7314C30.6776 30.6287 30.638 30.3491 30.5013 30.1321C30.3642 29.9151 30.0826 29.6732 29.9986 29.7101C29.9073 29.7502 29.9603 30.1669 29.9888 30.3607ZM31.1955 33.7142C31.5994 33.0495 31.7675 32.3588 31.7675 32.3588H30.612C30.612 32.3588 30.797 33.0665 31.1955 33.7142ZM31.3946 28.7206L32.3279 27.0918L33.0564 28.7206H34.2637C33.5349 29.406 33.2388 30.4406 33.2388 31.1259V31.8792C33.2388 32.1993 33.0798 32.724 33.0798 32.724C33.0798 32.724 34.1249 33.5251 34.2865 33.66C34.3546 33.7171 34.4268 33.7504 34.3773 33.8889C34.2944 34.1247 33.5879 34.4404 33.5126 34.5048C33.3535 34.6418 33.3102 34.7315 33.3568 34.8707C33.4026 35.0071 33.5349 35.0302 33.8083 34.9387C34.0816 34.8476 34.6507 34.5511 35.1296 34.3453C35.6071 34.1399 36.2447 34.1851 36.2447 34.1851V33.2726H34.4466V30.3498L34.1274 29.8396L34.9248 28.4237L35.7207 29.8475L35.4023 30.3495V31.8792H36.3244V30.3495L36.006 29.8475L36.8026 28.4313L37.5992 29.8475L37.2808 30.3495V31.8792H38.2029V30.3495L37.8845 29.8475L38.6811 28.4313L39.4777 29.8475L39.1586 30.3495L39.1683 33.2701L37.3601 33.2708V34.6129C37.7702 35.0006 38.1575 35.875 38.1575 36.3998C38.1575 36.9252 37.816 37.1534 37.816 37.1534C37.9292 37.5646 37.9068 37.7353 37.861 38.1125C37.8145 38.4973 37.337 39.0937 37.337 39.0937V46.0553C37.337 46.5294 36.2447 46.4842 36.2447 46.0784V39.2539C35.6298 38.5693 33.945 38.0438 33.945 38.0438C33.3301 38.6597 32.9435 39.7334 32.9435 39.7334C33.2168 39.9164 33.6269 39.7334 33.7859 39.5504C33.945 39.3681 34.2641 39.3222 34.4466 39.4361C34.6283 39.5504 34.6741 39.5963 34.6056 39.8705C34.5375 40.1439 34.4231 40.5988 34.4231 40.9178C34.4231 41.2378 34.7881 41.1684 35.0607 41.1919C35.6075 41.2378 35.6983 41.8537 35.6533 42.1962C35.6075 42.5387 35.4484 43.2699 35.4484 43.7259C35.4484 44.182 35.4708 44.6391 35.5166 44.8908C35.5617 45.1414 35.6533 45.4155 35.6298 45.7356C35.5988 46.1685 35.3341 46.2379 35.0607 45.9638C34.7881 45.6897 30.9853 41.6255 30.9853 41.6255C30.735 42.4468 31.7819 43.8634 32.1238 44.297C32.4653 44.7313 32.4422 45.0506 32.1468 45.3472C31.8504 45.6437 31.2813 45.8036 31.1677 46.0781C31.0538 46.3522 31.4411 47.1735 32.2377 48.2006C33.0344 49.2283 31.3268 49.9133 30.3022 50.1191C29.2777 50.3245 29.2777 49.616 29.3462 49.2283C29.414 48.8399 29.414 48.6117 29.3916 48.2693C29.3689 47.9275 29.0501 47.448 28.6174 46.8762C28.1846 46.3063 28.1846 45.7808 28.3671 44.4565C28.5492 43.1328 28.5038 42.2873 28.5038 42.2873C28.5038 42.2873 28.0483 42.3105 27.388 42.2873C26.7276 42.2649 26.1813 41.879 26.1359 40.2806C26.0904 38.6821 26.0525 34.87 25.9462 34.4737C25.8401 34.078 25.415 34.0017 25.2328 33.9565C25.0507 33.9106 25.0374 33.6365 25.2195 33.5453C25.6937 33.3074 26.265 32.7233 26.0525 32.358C25.8401 31.9924 25.0053 32.0684 24.4438 32.3425C23.8823 32.6166 23.2901 33.2097 23.1383 33.3779C22.9865 33.5453 22.8649 33.5453 22.8801 33.3623C22.8952 33.1793 22.7741 32.3121 22.6983 32.0076C22.6226 31.7031 22.3489 31.1252 22.258 30.973C22.1671 30.8207 22.258 30.7599 22.4098 30.8207C22.5616 30.8818 22.8956 31.0189 23.2144 31.11C23.5332 31.2011 23.8365 31.0493 23.9883 30.7448C24.1401 30.4403 24.4283 29.786 24.5801 29.4967C24.7319 29.2074 24.975 29.2682 25.1722 29.3141C25.3699 29.3597 25.552 29.4815 25.7337 29.5575C25.9159 29.6338 26.0677 29.6186 26.1283 29.5271C26.1892 29.436 26.2653 29.4052 26.3713 29.1767C26.4774 28.9485 26.614 29.0552 26.6292 29.1463C27.1734 32.421 28.5874 32.5714 28.5874 32.5714C28.375 33.1189 27.8741 33.9869 27.7529 34.2003C27.6314 34.4129 27.5859 34.7019 27.5557 34.9308C27.5254 35.159 27.6314 37.3194 27.7832 38.1122C27.9354 38.9034 28.4212 38.5996 28.5726 38.3559C28.7241 38.1122 29.1951 37.1079 29.1951 37.1079C29.1951 37.1079 29.3166 36.8337 29.3166 36.6048C29.3166 36.3766 28.9217 35.8743 28.8305 35.7221C28.7396 35.5702 28.4057 35.2657 28.4057 34.5044C28.4057 33.7435 29.0887 33.2104 29.3318 33.0126C29.5745 32.8148 29.5745 32.5414 29.5442 32.374C29.4374 31.7848 28.8153 30.5469 28.512 30.075C28.2084 29.6034 27.6166 28.7051 27.6166 28.7051H28.846L29.6354 27.0611L30.5006 28.7127L31.3946 28.7206ZM36.2443 37.0164V36.0804C36.2443 36.0804 35.9937 35.692 35.3788 35.692C34.7647 35.692 34.4004 35.875 34.4004 36.0345C34.4004 36.2862 34.9468 37.0164 36.2443 37.0164ZM20.3604 25.2156H42.5391V26.7327H20.3604V25.2156ZM20.3604 24.4359V18.3936H42.5391V24.4359H20.3604Z" fill="#0F393B"/>
<path fill-rule="evenodd" clip-rule="evenodd" d="M38.1751 24.6155V23.5841H36.5642V22.9191H37.879V19.9966H36.672L36.262 19.1978L35.8519 19.9966H34.6456V22.9191H35.9597V23.5841H32.8042V22.9191H34.1187V19.9966H32.9121L32.502 19.1978L32.0923 19.9966H30.8857V22.9191H32.1998V23.5841H28.9826V22.9191H30.2971V19.9966H29.0901L28.6804 19.1978L28.2707 19.9966H27.0637V22.9191H28.3778V23.5841L25.8343 23.591L23.2998 22.9972L23.8108 24.6155H38.1751Z" fill="#F5F3EE"/>
<path fill-rule="evenodd" clip-rule="evenodd" d="M24.1756 22.8656L25.8753 23.2844L26.7869 20.7182L26.7873 20.0712L24.1756 22.8656ZM28.2771 2.82481C25.6441 3.05952 24.0238 3.62079 21.8838 4.3401C22.0428 3.41682 22.257 2.86966 22.6289 2.32611C22.5989 2.80348 22.9877 3.31195 23.7612 3.31195C24.5348 3.31195 24.9654 2.86459 24.9654 2.59589C24.9654 2.32792 24.8027 1.93951 24.3862 1.93951C23.9697 1.93951 23.8806 2.23787 23.9102 2.35721C23.9401 2.47691 23.8507 2.50657 23.732 2.53658C23.6127 2.56624 23.2856 2.38686 23.4046 1.96953C23.5351 1.5106 24.0887 1.26107 24.7429 1.26107C24.7425 1.26034 26.2997 1.19814 28.2771 2.82481ZM41.0268 4.35854C38.8868 3.63851 37.1936 3.0776 34.5607 2.84253C35.7728 1.99557 36.9048 1.27626 38.1486 1.27626C38.8028 1.27626 39.3567 1.52579 39.4869 1.98472C39.6059 2.40241 39.2785 2.58107 39.1594 2.55105C39.0412 2.52103 38.9517 2.49138 38.9813 2.37204C39.0109 2.25306 38.9214 1.95434 38.5053 1.95434C38.0891 1.95434 37.9264 2.34202 37.9264 2.61072C37.9264 2.87942 38.3567 3.32677 39.1302 3.32677C39.9038 3.32677 40.2925 2.81794 40.263 2.34093C40.6344 2.88485 40.8678 3.43527 41.0268 4.35854ZM29.8995 2.33406C29.8288 2.44726 29.7668 2.53152 29.6911 2.65773C30.3043 2.63169 30.918 2.61662 31.5317 2.61253C31.9338 2.61253 33.0424 2.66641 33.2855 2.68413C32.8931 1.77315 32.1527 0.51536 31.6356 0.51536C31.5335 0.51536 31.3078 0.462198 30.883 0.952587C30.883 0.952587 30.817 1.16921 31.0867 1.12762C31.4286 1.07518 31.5581 1.42923 31.5328 1.60535C31.473 2.01509 30.9973 2.41073 30.5209 2.41073C30.0452 2.41073 29.8995 2.33406 29.8995 2.33406Z" fill="#F5F3EE"/>
<path fill-rule="evenodd" clip-rule="evenodd" d="M6.96494 17.1894L8.70246 14.8221C8.80235 14.3881 8.88458 13.1932 8.33065 12.3488C7.71974 11.4172 6.91842 11.7846 6.68653 11.8881C6.53795 11.9546 6.26604 12.1524 6.09978 12.42C6.09978 12.42 4.43295 14.2673 2.58868 16.0853C2.33228 16.3377 2.04305 16.8158 2.01961 17.2509C1.99797 17.6422 2.15124 18.0324 2.3806 18.2776C2.88224 18.8135 3.76073 18.7853 4.20936 18.445L4.23965 19.9216C4.70342 19.5484 6.37278 17.9427 6.96494 17.1894Z" fill="#0F393B"/>
<path fill-rule="evenodd" clip-rule="evenodd" d="M31.442 13.7398C41.3388 13.7398 46.9743 23.0593 48.1994 24.6965C50.3856 27.6189 53.0553 29.9888 56.1531 29.2018C60.7061 28.0453 60.4637 21.2797 60.4637 21.2797C59.3714 20.4877 57.4968 19.4906 54.0885 14.6428C50.7491 9.89404 43.1899 2.84814 31.442 2.84814C19.6934 2.84814 12.1342 9.89404 8.79509 14.6428C5.38677 19.4902 3.51293 20.4877 2.42022 21.2797C2.42022 21.2797 2.17752 28.0453 6.7312 29.2018C9.82866 29.9888 12.4991 27.6189 14.6849 24.6965C15.9093 23.0593 21.5456 13.7398 31.442 13.7398Z" fill="#F5F3EE"/>
<path d="M31.4422 13.5117C40.6448 13.5117 46.1902 21.4375 47.9944 24.0164C48.1578 24.25 48.2909 24.4399 48.381 24.5599C49.4586 26.0014 50.6541 27.3055 51.957 28.1485C53.234 28.9752 54.6181 29.3568 56.0978 28.981C60.1408 27.9539 60.2451 22.2664 60.2375 21.3977C60.1509 21.3359 60.055 21.2697 59.9544 21.2003C58.809 20.4075 56.968 19.1338 53.9026 14.7739C51.9863 12.0478 48.6663 8.5583 43.9507 6.10238C40.5204 4.31586 36.3507 3.07651 31.4418 3.07651C26.5329 3.07651 22.3626 4.31586 18.9326 6.10238C14.217 8.5583 10.8978 12.0474 8.98104 14.7739C5.91496 19.1346 4.0743 20.4079 2.92821 21.2006C2.82796 21.2701 2.73275 21.3359 2.64584 21.3974C2.63827 22.2657 2.74249 27.9532 6.78588 28.9807C8.26591 29.3568 9.64929 28.9749 10.9266 28.1481C12.2292 27.3052 13.4247 26.0011 14.503 24.5596C14.5928 24.4395 14.7259 24.2496 14.8893 24.0164C16.6942 21.4379 22.24 13.5117 31.4422 13.5117ZM31.4422 13.9685C22.4758 13.9685 17.0321 21.7478 15.2614 24.2789C15.1323 24.4654 15.0007 24.6501 14.8665 24.833C13.759 26.3139 12.526 27.6563 11.173 28.5322C9.79426 29.4244 8.29368 29.8345 6.67625 29.4233C1.94261 28.2208 2.19217 21.2936 2.19289 21.2733L2.19613 21.1616L2.28809 21.0947C2.41251 21.0046 2.53657 20.9185 2.67108 20.826C3.79084 20.051 5.59003 18.8069 8.60995 14.5117C10.5584 11.7408 13.9325 8.19376 18.7253 5.6977C22.2144 3.88044 26.4547 2.62012 31.4426 2.62012C36.4301 2.62012 40.6704 3.88044 44.1598 5.6977C48.9523 8.19376 52.3267 11.7404 54.2752 14.5117C57.2947 18.8058 59.0936 20.051 60.213 20.8252C60.3475 20.9182 60.4723 21.0046 60.5967 21.0947L60.689 21.1616L60.6919 21.2733C60.6926 21.2932 60.9418 28.2208 56.2085 29.4233C54.5914 29.8341 53.0909 29.424 51.7125 28.5322C50.3587 27.6563 49.1261 26.3139 48.0182 24.833C47.9068 24.6843 47.7802 24.5021 47.623 24.2789C45.8519 21.7478 40.4086 13.9685 31.4422 13.9685Z" fill="#0F393B"/>
<path fill-rule="evenodd" clip-rule="evenodd" d="M31.4412 12.861C40.9817 12.861 46.6594 20.9766 48.5268 23.6434C48.6485 23.8204 48.7727 23.9957 48.8993 24.1692C51.4237 27.544 53.7263 28.9118 55.9366 28.3501C59.1336 27.5379 59.5267 23.1258 59.5711 21.7928L59.5725 21.7426L59.5318 21.7144C58.4077 20.9365 56.5241 19.6349 53.3715 15.1498C51.4872 12.4704 44.3373 3.72803 31.4412 3.72803C18.545 3.72803 11.3955 12.4704 9.51122 15.1498C6.3795 19.6031 4.41442 20.9636 3.35849 21.6948L3.31738 21.723L3.31883 21.7733C3.36463 23.1114 3.76168 27.5408 6.94533 28.3501C9.15635 28.9121 11.4583 27.544 13.982 24.1692C14.0743 24.0462 14.2045 23.86 14.3556 23.6437C16.2218 20.9766 21.9 12.861 31.4412 12.861Z" fill="#0F393B"/>
<path fill-rule="evenodd" clip-rule="evenodd" d="M10.9149 16.5994L9.91882 17.7896L11.7865 21.661L7.77884 20.3475L6.9209 21.3724L11.0343 24.8333L11.6556 24.0909L8.75182 21.6379L12.6466 22.9069L13.0559 22.4179L11.2001 18.6876L14.1209 21.1446L15.0279 20.0604L10.9149 16.5994ZM16.1148 15.789L15.1833 16.7904L14.2291 14.9409L16.1148 15.789ZM13.9449 13.345L13.0293 14.3294L15.6013 19.459L16.2291 18.7841L15.5306 17.4262L16.7755 16.0874L18.1802 16.6855L19.2162 15.5717L13.9449 13.345ZM20.2253 8.47151L22.2376 11.7006L17.7535 10.0204L16.7513 10.6482L19.5971 15.2143L20.6833 14.5341L18.6551 11.2786L23.1879 12.9646L24.1634 12.3527L21.3184 7.78692L20.2253 8.47151ZM37.2182 11.1155L37.7826 9.47181L39.364 10.0183L39.5991 9.33403L38.0177 8.78831L38.4988 7.38441L40.1238 7.94568L40.3564 7.26904L37.3895 6.24523L35.6419 11.3357L38.9132 12.4651L39.1476 11.7816L37.2182 11.1155ZM46.4024 10.7752L45.9184 11.3014L47.0476 12.3205L43.9324 15.7908L44.9811 16.7376L48.0963 13.268L49.2085 14.2712L49.6856 13.7399L46.4024 10.7752ZM47.9437 18.8597L49.2712 17.7433L50.3462 19.0275L50.8984 18.5624L49.8241 17.2779L50.9575 16.3239L52.0625 17.6442L52.6085 17.1842L50.5926 14.7739L46.4792 18.2352L48.7029 20.8925L49.255 20.4278L47.9437 18.8597ZM54.1653 20.2311C54.5393 20.648 54.5407 21.1442 54.113 21.5301C53.6853 21.916 53.1473 21.8331 52.7369 21.3757L52.4952 21.107L53.8519 19.8824L54.1653 20.2311ZM53.4502 22.8841C53.4607 22.8956 54.2814 23.3036 55.1877 22.4848C55.9458 21.8002 55.6908 20.861 54.9003 19.9804L53.4372 18.352L49.4472 21.9547L50.3917 23.0063L51.9759 21.5753L52.4437 22.0953L51.4335 24.3625L52.633 25.3299L53.4502 22.8841ZM33.2563 5.7939L33.2177 7.99305L31.1084 7.95653L31.147 5.75665L29.7358 5.73242L29.6424 11.1155L31.0532 11.1404L31.0961 8.67909L33.2047 8.71634L33.1618 11.177L34.5741 11.2019L34.6671 5.81813L33.2563 5.7939ZM40.8992 13.7956C41.8999 14.3985 42.9941 14.3019 43.5033 13.4521C43.878 12.8582 43.8809 12.3675 43.4351 11.4894C43.3154 11.2348 43.1683 11.0554 43.0673 10.8301C42.8722 10.4577 42.6897 10.1564 42.8624 9.8689C43.0471 9.56078 43.478 9.53872 43.8718 9.77596C44.2851 10.0251 44.4557 10.4378 44.539 10.7245L45.1892 10.4425C44.9898 9.91193 44.6948 9.43348 44.0276 9.03169C42.8794 8.33987 41.9436 8.5225 41.5548 9.17201C41.1617 9.82767 41.2731 10.3691 41.5653 10.9274C41.5653 10.9274 41.7531 11.2504 41.8624 11.4619C42.1188 11.8988 42.4189 12.4438 42.2104 12.7917C41.954 13.2199 41.5068 13.315 41.0762 13.0467C40.5241 12.6951 40.395 12.2897 40.2789 11.8923L39.5666 12.2008C39.7239 12.7411 40.0921 13.3092 40.8992 13.7956ZM26.2622 6.07598C24.5042 6.45137 23.3527 7.74497 23.7324 9.49858C23.9488 10.445 24.7948 12.195 27.4624 11.6261C28.2003 11.4847 28.6042 11.1846 28.9933 10.8153L28.5021 10.2533C28.3236 10.458 28.0459 10.7556 27.4325 10.8862C26.1443 11.161 25.3747 10.1098 25.1832 9.20528C24.8998 7.86829 25.6769 6.93995 26.5637 6.75117C27.1855 6.61845 27.5688 6.78336 27.8112 6.88209L27.8187 6.88064L27.9821 6.19424C27.5576 6.02246 27.0506 5.90854 26.2622 6.07598ZM54.7257 15.0299C54.6518 14.7106 54.5476 13.3468 55.064 12.6272C55.5408 11.9639 55.9753 12.1885 56.2087 12.2923C56.3136 12.3389 56.6284 12.5436 56.6905 12.9472C56.7236 13.1638 56.6558 13.4842 56.4889 13.7193C56.1621 14.145 55.4189 14.4274 55.4189 14.4274C55.4189 14.4274 56.3713 16.2986 58.3898 18.1567L58.3825 19.4195C55.619 16.747 54.7257 15.0299 54.7257 15.0299Z" fill="#F5F3EE"/>
<path fill-rule="evenodd" clip-rule="evenodd" d="M56.1129 14.6432C56.3863 15.1155 57.0801 16.2709 58.8169 17.903C59.1051 18.1739 59.8234 18.3996 60.2291 17.9428C60.3849 17.7671 60.4841 17.5164 60.4686 17.225C60.4502 16.8901 60.2447 16.4991 60.0467 16.3288C59.7001 16.0308 58.2067 14.5184 57.1364 13.3304C57.1133 13.547 56.9243 13.9091 56.9243 13.9091C56.7808 14.1123 56.6012 14.4041 56.1129 14.6432ZM4.63612 19.3431L4.62891 18.1504C6.64808 16.2919 7.60159 14.4269 7.60159 14.4269C7.60159 14.4269 6.85833 14.1445 6.53159 13.7188C6.36426 13.4838 6.2961 13.163 6.32964 12.9467C6.39239 12.5431 6.7065 12.3388 6.81108 12.2918C7.04441 12.188 7.47897 11.9631 7.955 12.6267C8.47179 13.3463 8.33655 14.7007 8.26298 15.02C8.2637 15.02 7.32246 16.6641 4.63612 19.3431Z" fill="#F5F3EE"/>
<path fill-rule="evenodd" clip-rule="evenodd" d="M6.87353 14.6438C6.60089 15.1161 5.90667 16.2716 4.16988 17.9037C3.88173 18.1745 3.16336 18.4002 2.75837 17.9435C2.60221 17.7677 2.50268 17.5171 2.51819 17.2256C2.53622 16.8907 2.74214 16.4998 2.94013 16.3294C3.28669 16.0314 4.78006 14.5191 5.84969 13.3311C5.87314 13.5477 6.06211 13.9097 6.06211 13.9097C6.206 14.1129 6.38595 14.4048 6.87353 14.6438Z" fill="#F5F3EE"/>
<path fill-rule="evenodd" clip-rule="evenodd" d="M1.2627 34.8077C1.2627 32.3305 3.26528 30.3223 5.73524 30.3223C8.20592 30.3223 10.2081 32.3305 10.2081 34.8077C10.2081 37.2857 8.20556 39.2928 5.73524 39.2928C3.26528 39.2928 1.2627 37.2853 1.2627 34.8077Z" fill="#0F393B"/>
<path fill-rule="evenodd" clip-rule="evenodd" d="M8.14099 31.5592C8.2178 31.6207 8.41182 31.7805 8.41182 31.7805C8.7995 32.1284 9.14859 32.5353 9.35091 33.0221C9.60695 33.6343 8.81826 34.5547 8.58745 34.771C7.54415 35.747 6.89573 35.7308 6.5232 35.7847C6.15031 35.8375 5.91554 35.6067 5.92347 35.3268C5.94727 34.5034 6.52933 33.0998 6.69342 32.8405C6.80089 32.6709 6.98589 32.5628 6.98589 32.5628C7.37068 32.4546 7.74394 32.2886 7.93759 32.0688C8.13197 31.8493 8.14099 31.5592 8.14099 31.5592ZM4.39836 30.9672C4.82248 30.8239 5.26679 30.7499 5.71431 30.748C6.41321 30.748 7.07893 30.879 7.64512 31.2384C7.78865 31.3292 7.83193 31.4446 7.83193 31.6073C7.83193 32.1349 7.00212 32.3147 6.44963 32.3147C5.89787 32.3147 5.22024 32.0944 4.7406 31.9447C4.2606 31.7939 4.15386 31.5129 4.15386 31.3889C4.15314 31.2656 4.24546 31.0186 4.39836 30.9672ZM2.62911 37.4301C2.06581 36.8721 1.66406 35.8693 1.66406 34.8104C1.66406 34.3999 1.72429 34.0043 1.8368 33.6307C1.8368 33.6307 1.93165 33.4604 2.02397 33.6061C2.08961 33.7092 2.17868 33.8151 2.25874 33.9565C2.33952 34.0979 2.77697 34.431 2.73622 34.6939C2.58223 35.6856 2.72107 37.0092 2.76723 37.2262C2.81375 37.4421 2.74595 37.5459 2.62911 37.4301ZM2.73658 34.0289C2.53715 33.9186 2.29949 33.4094 2.22196 33.2575C2.16678 33.1486 2.17003 32.8449 2.2454 32.7114C2.57466 32.1274 3.04384 31.5954 3.65186 31.3129C3.72146 31.2807 3.82929 31.2775 3.82929 31.4504C3.82929 31.5466 3.87689 31.6984 3.8787 31.7921C3.88086 31.884 3.92233 32.0832 3.79864 32.238C3.67566 32.3921 3.13075 33.349 2.99804 33.89C2.9681 34.0133 2.93601 34.1399 2.73658 34.0289ZM5.80086 38.8709C5.77201 38.8695 5.74316 38.8716 5.71431 38.8716C4.96888 38.8716 4.15314 38.5885 3.66953 38.3172C3.17006 38.037 2.98289 36.7549 2.98289 36.0993C2.98289 33.9837 3.85237 32.7118 3.99085 32.4644C4.12933 32.2178 4.43731 32.1867 4.66848 32.2481C4.89964 32.3103 4.98872 32.357 5.25378 32.4373C5.39731 32.481 5.68473 32.5411 5.90039 32.5877C6.11605 32.6344 6.34649 32.6803 6.20837 33.0821C6.06989 33.4832 5.6054 34.4553 5.55455 35.6046C5.50839 36.6421 5.64687 37.6768 5.88164 38.3111C6.03419 38.7226 6.03166 38.8785 5.80086 38.8709ZM6.86292 38.7064C6.63139 38.7812 6.52464 38.616 6.41682 38.4916C6.00101 38.0156 5.89354 36.7343 5.89354 36.5647C5.89354 36.3937 5.95485 36.2089 6.07313 36.206C7.08398 36.1807 7.80272 35.8845 8.46159 35.3413C9.12046 34.7981 9.40572 34.1844 9.46595 34.0643C9.52581 33.9442 9.65564 33.9656 9.68701 34.1392C9.71262 34.2806 9.76491 34.537 9.76491 34.81C9.76455 36.653 8.5265 38.1653 6.86292 38.7064Z" fill="#F5F3EE"/>
<path fill-rule="evenodd" clip-rule="evenodd" d="M61.7957 34.8077C61.7957 32.3305 59.7931 30.3223 57.3231 30.3223C54.8521 30.3223 52.8506 32.3305 52.8506 34.8077C52.8506 37.2857 54.8525 39.2928 57.3231 39.2928C59.7931 39.2928 61.7957 37.2853 61.7957 34.8077Z" fill="#0F393B"/>
<path fill-rule="evenodd" clip-rule="evenodd" d="M55.1212 32.0684C55.3148 32.2883 55.6881 32.4543 56.0729 32.5624C56.0729 32.5624 56.2582 32.6705 56.3653 32.8402C56.5294 33.0994 57.1111 34.503 57.136 35.3264C57.1436 35.606 56.9092 35.8371 56.5359 35.7843C56.1634 35.7308 55.5146 35.7467 54.472 34.7706C54.2409 34.5543 53.4522 33.634 53.7086 33.0217C53.9102 32.5349 54.26 32.1281 54.648 31.7802C54.648 31.7802 54.8409 31.6203 54.9185 31.5588C54.9181 31.5592 54.9275 31.8493 55.1212 32.0684ZM58.9063 31.3889C58.9063 31.5129 58.7992 31.7939 58.3196 31.9447C57.8392 32.0944 57.1623 32.3147 56.6102 32.3147C56.0574 32.3147 55.2275 32.1353 55.2275 31.6073C55.2275 31.4446 55.2712 31.3292 55.4143 31.2384C55.9805 30.879 56.6463 30.748 57.3452 30.748C57.8064 30.748 58.2475 30.8298 58.6615 30.9672C58.8133 31.0186 58.9063 31.2656 58.9063 31.3889ZM60.2919 37.2258C60.3377 37.0088 60.4765 35.6852 60.3229 34.6936C60.2821 34.4307 60.7196 34.0976 60.8004 33.9562C60.8808 33.8148 60.9695 33.7088 61.0348 33.6058C61.1271 33.4604 61.2223 33.6303 61.2223 33.6303C61.3374 34.0129 61.3957 34.4104 61.3954 34.81C61.3954 35.8689 60.9933 36.8718 60.4296 37.4298C60.3135 37.5459 60.2454 37.4421 60.2919 37.2258ZM60.0607 33.8904C59.9284 33.3493 59.3831 32.3921 59.2598 32.2384C59.1364 32.0836 59.1779 31.8843 59.1793 31.7925C59.1822 31.6988 59.2295 31.5469 59.2295 31.4507C59.2295 31.2779 59.3373 31.2811 59.4062 31.3133C60.0149 31.5954 60.4845 32.1274 60.8133 32.7118C60.8887 32.8452 60.8923 33.149 60.8364 33.2579C60.7596 33.4097 60.5216 33.9189 60.3222 34.0292C60.1235 34.1399 60.091 34.0133 60.0607 33.8904ZM57.1778 38.3115C57.4122 37.6771 57.5511 36.6425 57.5046 35.6049C57.4537 34.4556 56.9896 33.4839 56.8511 33.0825C56.7123 32.6807 56.9434 32.6347 57.1591 32.5881C57.3747 32.5414 57.6622 32.4814 57.8064 32.4376C58.0704 32.357 58.1595 32.3103 58.391 32.2485C58.6214 32.187 58.9298 32.2181 59.0686 32.4648C59.2075 32.7121 60.0766 33.984 60.0766 36.0996C60.0766 36.7549 59.8898 38.037 59.3899 38.3176C58.9067 38.5888 58.091 38.872 57.3452 38.872C57.3163 38.872 57.2875 38.8698 57.2593 38.8713C57.0278 38.8785 57.0249 38.7226 57.1778 38.3115ZM53.2949 34.81C53.2949 34.5366 53.3472 34.2802 53.3732 34.1392C53.4042 33.9656 53.5337 33.9442 53.5935 34.0643C53.6541 34.1844 53.9394 34.7981 54.5979 35.3413C55.2571 35.8845 55.9755 36.1803 56.9863 36.206C57.1039 36.2089 57.1659 36.394 57.1659 36.5647C57.1659 36.7343 57.0588 38.0156 56.6427 38.4916C56.5348 38.616 56.4284 38.7812 56.1962 38.7064C54.5322 38.1653 53.2949 36.653 53.2949 34.81Z" fill="#F5F3EE"/>
<path d="M52.8701 34.7841C52.8694 34.192 52.9854 33.6055 53.2115 33.0584C53.4375 32.5113 53.7691 32.0144 54.1871 31.5962C55.0007 30.7804 56.1248 30.2759 57.3657 30.2759C58.6067 30.2759 59.7311 30.7804 60.5443 31.5962C61.3579 32.4117 61.8606 33.539 61.8606 34.7841C61.8606 36.0293 61.3576 37.1561 60.5443 37.9716C59.7311 38.7872 58.6074 39.2916 57.3657 39.2916C56.7752 39.2923 56.1904 39.1761 55.6448 38.9496C55.0992 38.723 54.6036 38.3907 54.1864 37.9716C53.7685 37.5534 53.4371 37.0566 53.2112 36.5095C52.9853 35.9625 52.8694 35.3762 52.8701 34.7841ZM52.9159 34.7841C52.9159 36.0166 53.414 37.1319 54.2189 37.9395C55.0245 38.7474 56.1367 39.2468 57.3661 39.2468C58.5955 39.2468 59.7073 38.7474 60.5133 37.9402C61.3183 37.1323 61.8163 36.017 61.8163 34.7841C61.8163 33.5513 61.3183 32.4363 60.5126 31.6284C60.0999 31.2134 59.6094 30.8843 59.0694 30.66C58.5294 30.4357 57.9506 30.3207 57.3661 30.3214C56.7816 30.3208 56.2028 30.4359 55.6628 30.6603C55.1228 30.8846 54.6324 31.2138 54.2196 31.6288C53.8057 32.0427 53.4775 32.5345 53.2537 33.076C53.03 33.6175 52.9152 34.198 52.9159 34.7841Z" fill="#FDE62F"/>
</g>
</svg>
