<svg width="21" height="22" viewBox="0 0 21 22" fill="none" xmlns="http://www.w3.org/2000/svg">
<path fill-rule="evenodd" clip-rule="evenodd" d="M19.7235 6.56191L19.0586 5.4381C18.4962 4.48718 17.2496 4.15914 16.272 4.70476C15.8067 4.97178 15.2514 5.04753 14.7287 4.91532C14.2059 4.78311 13.7586 4.4538 13.4854 4C13.3097 3.71156 13.2152 3.38302 13.2116 3.04762C13.2275 2.50988 13.0192 1.98879 12.6343 1.60305C12.2493 1.21731 11.7204 0.999779 11.1681 1H9.82861C9.28753 1 8.76875 1.21001 8.38707 1.58357C8.00539 1.95713 7.79227 2.46345 7.79487 2.99048C7.77883 4.07861 6.8686 4.95249 5.75136 4.95238C5.40702 4.9489 5.06973 4.85691 4.7736 4.68571C3.79601 4.14009 2.54948 4.46813 1.98699 5.41905L1.27323 6.56191C0.711421 7.51163 1.04362 8.72505 2.01632 9.27619C2.64859 9.63175 3.03809 10.2889 3.03809 11C3.03809 11.7111 2.64859 12.3682 2.01632 12.7238C1.04486 13.2712 0.712294 14.4817 1.27323 15.4286L1.94788 16.5619C2.21143 17.0251 2.65362 17.3669 3.1766 17.5117C3.69958 17.6565 4.26023 17.5923 4.73449 17.3333C5.20072 17.0684 5.75629 16.9958 6.27774 17.1317C6.79918 17.2676 7.24328 17.6008 7.51132 18.0571C7.68708 18.3456 7.78152 18.6741 7.78509 19.0095C7.78509 20.1088 8.70001 21 9.82861 21H11.1681C12.2929 21 13.2063 20.1146 13.2116 19.019C13.209 18.4904 13.4235 17.9826 13.8073 17.6088C14.1911 17.2349 14.7124 17.026 15.2552 17.0286C15.5987 17.0375 15.9346 17.1291 16.2329 17.2952C17.208 17.8425 18.4537 17.5189 19.0195 16.5714L19.7235 15.4286C19.996 14.973 20.0708 14.4304 19.9313 13.9209C19.7919 13.4115 19.4496 12.9772 18.9804 12.7143C18.5112 12.4514 18.169 12.0171 18.0295 11.5076C17.89 10.9982 17.9648 10.4556 18.2373 10C18.4145 9.69865 18.671 9.44879 18.9804 9.27619C19.9473 8.72535 20.2787 7.51902 19.7235 6.57143V6.56191Z" stroke="#F5F3EE" stroke-width="1.5" stroke-linecap="round" stroke-linejoin="round"/>
<path d="M10.5035 13.7422C12.0587 13.7422 13.3194 12.5142 13.3194 10.9994C13.3194 9.48453 12.0587 8.25651 10.5035 8.25651C8.94827 8.25651 7.68753 9.48453 7.68753 10.9994C7.68753 12.5142 8.94827 13.7422 10.5035 13.7422Z" stroke="#F5F3EE" stroke-width="1.5" stroke-linecap="round" stroke-linejoin="round"/>
</svg>
