<svg width="85" height="18" viewBox="0 0 85 18" fill="none" xmlns="http://www.w3.org/2000/svg">
<path d="M1.10938 14C0.886719 14 0.713867 13.9355 0.59082 13.8066C0.467773 13.6777 0.40625 13.502 0.40625 13.2793V3.00488C0.40625 2.78223 0.470703 2.60938 0.599609 2.48633C0.728516 2.36328 0.904297 2.30176 1.12695 2.30176H5.28418C6.70215 2.30176 7.79492 2.63281 8.5625 3.29492C9.33008 3.95703 9.71387 4.87988 9.71387 6.06348C9.71387 7.23535 9.33008 8.15234 8.5625 8.81445C7.80078 9.47656 6.70801 9.80762 5.28418 9.80762H2.83203V13.2793C2.83203 13.5078 2.77344 13.6865 2.65625 13.8154C2.53906 13.9385 2.36914 14 2.14648 14H1.10938ZM2.83203 7.90039H5.38965C5.95801 7.90039 6.40625 7.74512 6.73438 7.43457C7.0625 7.12402 7.22656 6.68457 7.22656 6.11621C7.22656 5.54199 7.0625 5.09961 6.73438 4.78906C6.40625 4.47266 5.95801 4.31445 5.38965 4.31445H2.83203V7.90039ZM12.1045 14C11.8877 14 11.7178 13.9385 11.5947 13.8154C11.4775 13.6865 11.4189 13.5137 11.4189 13.2969V2.04688C11.4189 1.84766 11.4746 1.69531 11.5859 1.58984C11.6973 1.47852 11.8701 1.39648 12.1045 1.34375L13.0977 1.15039C13.332 1.09766 13.5107 1.13867 13.6338 1.27344C13.7568 1.40234 13.8184 1.58984 13.8184 1.83594V13.2969C13.8184 13.5137 13.7598 13.6865 13.6426 13.8154C13.5254 13.9385 13.3613 14 13.1504 14H12.1045ZM19.9619 4.7627C20.4248 4.7627 20.8555 4.80957 21.2539 4.90332C21.6582 4.99121 22.0303 5.13477 22.3701 5.33398C22.7158 5.52734 23.0088 5.77051 23.249 6.06348C23.4951 6.35059 23.6855 6.70508 23.8203 7.12695C23.9609 7.54883 24.0312 8.02051 24.0312 8.54199V13.2969C24.0312 13.5195 23.9727 13.6924 23.8555 13.8154C23.7441 13.9385 23.5801 14 23.3633 14H22.792C22.5752 14 22.4053 13.9385 22.2822 13.8154C22.165 13.6865 22.1064 13.5137 22.1064 13.2969V12.9893C21.2568 13.8213 20.2666 14.2373 19.1357 14.2373C18.0811 14.2373 17.2285 13.9707 16.5781 13.4375C15.9336 12.9043 15.6113 12.2041 15.6113 11.3369C15.6113 10.417 15.9629 9.67871 16.666 9.12207C17.375 8.55957 18.3066 8.27832 19.4609 8.27832C20.2402 8.27832 21.0195 8.43945 21.7988 8.76172V8.27832C21.7988 7.75684 21.6201 7.34375 21.2627 7.03906C20.9111 6.73438 20.4248 6.58203 19.8037 6.58203C18.96 6.58203 18.1924 6.81641 17.501 7.28516C17.1318 7.50781 16.8301 7.42285 16.5957 7.03027L16.4375 6.74902C16.1855 6.32129 16.25 5.99023 16.6309 5.75586C17.6152 5.09375 18.7256 4.7627 19.9619 4.7627ZM19.6543 12.5938C20.2461 12.5938 20.7588 12.4355 21.1924 12.1191C21.6318 11.8027 21.8516 11.4277 21.8516 10.9941V10.3262C21.1484 9.98047 20.46 9.80762 19.7861 9.80762C19.2178 9.80762 18.7607 9.93945 18.415 10.2031C18.0693 10.4668 17.8965 10.8154 17.8965 11.249C17.8965 11.6533 18.0547 11.9785 18.3711 12.2246C18.6934 12.4707 19.1211 12.5938 19.6543 12.5938ZM33.7871 4.91211C34.0039 4.91211 34.1621 4.97949 34.2617 5.11426C34.3672 5.24316 34.376 5.4043 34.2881 5.59766L30.1484 15.1162C29.7852 15.9658 29.3516 16.5605 28.8477 16.9004C28.3496 17.2461 27.7637 17.4189 27.0898 17.4189C26.5742 17.4189 26.1172 17.3223 25.7188 17.1289C25.3848 16.959 25.2646 16.7246 25.3584 16.4258L25.5605 15.7314C25.6719 15.3799 25.9355 15.2773 26.3516 15.4238C26.5566 15.5059 26.7676 15.5469 26.9844 15.5469C27.2246 15.5469 27.4326 15.4883 27.6084 15.3711C27.7842 15.2598 27.9482 15.0371 28.1006 14.7031L28.707 13.3496L25.2178 5.59766C25.1299 5.4043 25.1357 5.24316 25.2354 5.11426C25.3408 4.97949 25.502 4.91211 25.7188 4.91211H26.8877C27.2861 4.91211 27.5703 5.14062 27.7402 5.59766L29.876 11.0117L32.0205 5.59766C32.1904 5.14062 32.4658 4.91211 32.8467 4.91211H33.7871ZM46.8125 4.91211C47.0293 4.91211 47.1875 4.97949 47.2871 5.11426C47.3926 5.24316 47.4014 5.4043 47.3135 5.59766L43.7363 13.4199C43.5254 13.8652 43.2295 14.0879 42.8486 14.0879H42.7432C42.3682 14.0879 42.0752 13.8652 41.8643 13.4199L38.1377 5.59766C38.0498 5.4043 38.0586 5.24316 38.1641 5.11426C38.2695 4.97949 38.4277 4.91211 38.6387 4.91211H39.6846C39.9014 4.91211 40.0713 4.96777 40.1943 5.0791C40.3232 5.19043 40.4346 5.36328 40.5283 5.59766L42.7959 11.1523L45.0459 5.59766C45.1279 5.36328 45.2334 5.19043 45.3623 5.0791C45.4971 4.96777 45.6729 4.91211 45.8896 4.91211H46.8125ZM50.0645 3.40039C49.6309 3.40039 49.2646 3.25098 48.9658 2.95215C48.667 2.65332 48.5176 2.28711 48.5176 1.85352C48.5176 1.43164 48.667 1.06836 48.9658 0.763672C49.2705 0.453125 49.6367 0.297852 50.0645 0.297852C50.4863 0.297852 50.8496 0.453125 51.1543 0.763672C51.4648 1.06836 51.6201 1.43164 51.6201 1.85352C51.6201 2.28125 51.4648 2.64746 51.1543 2.95215C50.8496 3.25098 50.4863 3.40039 50.0645 3.40039ZM49.5459 14C49.3291 14 49.1592 13.9385 49.0361 13.8154C48.9189 13.6865 48.8604 13.5137 48.8604 13.2969V5.59766C48.8604 5.38086 48.9189 5.21387 49.0361 5.09668C49.1592 4.97363 49.3291 4.91211 49.5459 4.91211H50.5918C50.8086 4.91211 50.9727 4.97363 51.084 5.09668C51.2012 5.21387 51.2598 5.38086 51.2598 5.59766V13.2969C51.2598 13.5137 51.2012 13.6865 51.084 13.8154C50.9668 13.9385 50.8027 14 50.5918 14H49.5459ZM61.9561 1.16797C62.1904 1.12695 62.3691 1.16797 62.4922 1.29102C62.6152 1.41406 62.6768 1.5957 62.6768 1.83594V13.2969C62.6768 13.5137 62.6152 13.6865 62.4922 13.8154C62.375 13.9385 62.208 14 61.9912 14H61.2793C61.0684 14 60.9043 13.9385 60.7871 13.8154C60.6699 13.6865 60.6113 13.5137 60.6113 13.2969V12.9189C59.8086 13.7979 58.8066 14.2373 57.6055 14.2373C56.7383 14.2373 55.9561 14.0293 55.2588 13.6133C54.5674 13.1914 54.0283 12.6201 53.6416 11.8994C53.2607 11.1729 53.0703 10.373 53.0703 9.5C53.0703 8.62109 53.2607 7.82129 53.6416 7.10059C54.0283 6.37988 54.5674 5.81152 55.2588 5.39551C55.9561 4.97363 56.7383 4.7627 57.6055 4.7627C58.5781 4.7627 59.4717 5.05859 60.2861 5.65039V2.04688C60.2861 1.84766 60.3389 1.69531 60.4443 1.58984C60.5557 1.47852 60.7256 1.39648 60.9541 1.34375L61.9561 1.16797ZM57.9482 12.1455C58.6631 12.1455 59.2549 11.9111 59.7236 11.4424C60.1924 10.9678 60.4268 10.3203 60.4268 9.5C60.4268 8.66797 60.1924 8.01758 59.7236 7.54883C59.2549 7.07422 58.6631 6.83691 57.9482 6.83691C57.2041 6.83691 56.6006 7.0918 56.1377 7.60156C55.6748 8.11133 55.4434 8.74414 55.4434 9.5C55.4434 10.25 55.6748 10.8799 56.1377 11.3896C56.6006 11.8936 57.2041 12.1455 57.9482 12.1455ZM66.9395 10.0361C67.0098 10.7744 67.3057 11.3574 67.8271 11.7852C68.3486 12.207 68.9697 12.418 69.6904 12.418C70.5225 12.418 71.2842 12.1484 71.9756 11.6094C72.1455 11.4746 72.2949 11.4043 72.4238 11.3984C72.5527 11.3926 72.6934 11.4629 72.8457 11.6094L73.2764 12.04C73.54 12.3037 73.54 12.5791 73.2764 12.8662C72.8428 13.3057 72.2715 13.6455 71.5625 13.8857C70.8594 14.1201 70.165 14.2373 69.4795 14.2373C68.5771 14.2373 67.7568 14.0469 67.0186 13.666C66.2803 13.2793 65.6885 12.7227 65.2432 11.9961C64.8037 11.2695 64.584 10.4375 64.584 9.5C64.584 8.14062 65.0293 7.0127 65.9199 6.11621C66.8164 5.21387 67.9414 4.7627 69.2949 4.7627C69.9629 4.7627 70.5781 4.87402 71.1406 5.09668C71.709 5.31934 72.1924 5.62988 72.5908 6.02832C73.0127 6.43848 73.3379 6.93066 73.5664 7.50488C73.7949 8.07324 73.9092 8.6709 73.9092 9.29785C73.9092 9.55566 73.8506 9.74316 73.7334 9.86035C73.6221 9.97754 73.4346 10.0361 73.1709 10.0361H66.9395ZM69.2598 6.5293C68.6445 6.5293 68.1289 6.71387 67.7129 7.08301C67.2969 7.45215 67.0449 7.94727 66.957 8.56836H71.5625C71.4688 7.98828 71.2549 7.53125 70.9209 7.19727C70.5107 6.75195 69.957 6.5293 69.2598 6.5293ZM83.542 12.8838C82.6162 13.7861 81.4443 14.2373 80.0264 14.2373C78.6084 14.2373 77.4307 13.7861 76.4932 12.8838C75.5615 11.9814 75.0957 10.8535 75.0957 9.5C75.0957 8.14648 75.5615 7.01855 76.4932 6.11621C77.4307 5.21387 78.6084 4.7627 80.0264 4.7627C81.4443 4.7627 82.6162 5.21387 83.542 6.11621C84.4736 7.01855 84.9395 8.14648 84.9395 9.5C84.9395 10.8535 84.4736 11.9814 83.542 12.8838ZM80.0264 12.1455C80.7646 12.1455 81.3711 11.8965 81.8457 11.3984C82.3262 10.9004 82.5664 10.2676 82.5664 9.5C82.5664 8.73242 82.3262 8.09668 81.8457 7.59277C81.3711 7.08887 80.7646 6.83691 80.0264 6.83691C79.2881 6.83691 78.6758 7.08887 78.1895 7.59277C77.709 8.09668 77.4688 8.73242 77.4688 9.5C77.4688 10.2676 77.709 10.9004 78.1895 11.3984C78.6699 11.8965 79.2822 12.1455 80.0264 12.1455Z" fill="#F5F3EE"/>
</svg>
