<svg width="80" height="60" viewBox="0 0 80 60" fill="none" xmlns="http://www.w3.org/2000/svg">
<g opacity="0.2">
<path fill-rule="evenodd" clip-rule="evenodd" d="M1.40474 57.0324V54.7165H2.01743V54.535H0V54.7165H0.61224V59.7462H0V59.9273H2.01743V59.7462H1.40474V57.2497H3.71031V59.7462H3.09762V59.9273H5.11505V59.7462H4.50236V54.7165H5.11505V54.535H3.09762V54.7165H3.71031V57.0324H1.40474ZM9.94151 59.9273L10.0139 58.8055H9.86959C9.72574 59.6735 9.43715 59.7828 8.68107 59.7828H7.96049V57.9375C8.53677 57.9375 8.78895 58.0097 8.82491 58.661H8.96875V57.1408H8.82491C8.75253 57.793 8.53677 57.793 7.96049 57.793V56.0556H8.71703C9.25735 56.0556 9.61786 56.2001 9.72574 56.8879H9.86959V55.9106H6.84389V56.0551H7.38421V59.7823H6.84389V59.9268H9.94151V59.9273ZM14.6241 59.9273L14.6601 58.8055H14.5522C14.4803 59.1672 14.2641 59.7828 13.7597 59.7828H12.715V56.0556H13.2553V55.9111H11.6344V56.0556H12.1387V59.7828H11.6344V59.9273H14.6241ZM16.4249 59.6739C16.6771 59.9277 17.0012 60 17.3612 60C18.1178 60 18.6581 59.4937 18.6581 58.661C18.6581 57.0686 16.3889 57.6837 16.3889 56.7068C16.3889 56.2371 16.8214 55.9833 17.2174 55.9833C17.7577 55.9833 18.1178 56.3451 18.2261 56.8513H18.3699V55.9106H18.2621L18.0458 56.0913C17.938 56.019 17.5419 55.8384 17.2898 55.8384C16.8214 55.8384 16.5332 56.019 16.353 56.2724C16.1727 56.4896 16.1008 56.7064 16.1008 56.9236C16.1008 57.2853 16.2446 57.648 16.6047 57.8652C16.6766 57.9009 17.6134 58.227 17.8292 58.2992C18.2616 58.4799 18.3695 58.661 18.3695 58.987C18.3695 59.5294 17.8651 59.855 17.3608 59.855C16.7845 59.855 16.3885 59.4567 16.2082 58.9143H16.1003V59.9273H16.1722L16.4249 59.6739ZM21.7202 59.7828H21.2158V56.0556H21.7202V55.9106H20.1352V56.0556H20.6396V59.7828H20.1352V59.9273H21.7202V59.7828ZM23.7731 59.7828H23.3047V59.9273H24.3854V59.7828H23.9529V56.1644L26.1866 60H26.3304V56.0556H26.7984V55.9106H25.6822V56.0556H26.1506V58.8055L24.4573 55.9106H23.3047V56.0556H23.7731V59.7828ZM31.1573 56.2001C30.9052 55.9463 30.5806 55.8384 30.1486 55.8384C29.3202 55.8384 28.4198 56.7064 28.4198 57.9009C28.4198 59.0593 29.032 60 30.1127 60C31.3371 60 31.6253 59.3122 31.6612 58.6244H32.0218V58.5164H30.4008V58.6244H30.9771C31.013 59.3122 30.9771 59.855 30.1486 59.855C29.2123 59.855 29.1039 59.095 29.1039 58.082C29.1039 57.7559 29.1039 56.8879 29.3202 56.4535C29.464 56.2362 29.7526 55.9829 30.1127 55.9829C30.7968 55.9829 31.2293 56.3812 31.3371 56.9958H31.481V55.9829H31.3731L31.1573 56.2001ZM35.011 59.7828H34.4707V56.0556H35.011V55.9106H33.3901V56.0556H33.8944V59.7828H33.3901V59.9273H35.011V59.7828ZM37.0285 59.7828H36.5601V59.9273H37.6767V59.7828H37.2087V56.1644L39.4415 60H39.5858V56.0556H40.0542V55.9106H38.9735V56.0556H39.4055V58.8055L37.7126 55.9106H36.5601V56.0556H37.0285V59.7828ZM44.7363 57.8652L43.7281 56.0556H44.2688V55.9106H42.647V56.0556H43.0803L44.2324 58.0454V59.7828H43.7281V59.9273H45.349V59.7828H44.8083V58.0454L45.8529 56.0556H46.3218V55.9106H45.0964V56.0556H45.7091L44.7363 57.8652ZM50.7882 59.9273L50.8601 58.8055H50.7518C50.6798 59.1672 50.4281 59.7828 49.9597 59.7828H48.8786V56.0556H49.4194V55.9111H47.7984V56.0556H48.3023V59.7828H47.7984V59.9273H50.7882ZM53.8503 59.7828H53.3095V56.0556H53.8503V55.9106H52.2284V56.0556H52.7337V59.7828H52.2284V59.9273H53.8503V59.7828ZM57.1637 60C58.1719 60 58.8565 58.987 58.8565 57.9009C58.8565 56.8513 58.1719 55.8384 57.1637 55.8384C56.119 55.8384 55.4344 56.8513 55.4344 57.9009C55.4344 58.987 56.119 60 57.1637 60ZM57.1637 59.855C56.3352 59.855 56.119 59.1672 56.119 57.9375C56.119 56.6707 56.3352 55.9833 57.1637 55.9833C57.9921 55.9833 58.1719 56.6711 58.1719 57.9375C58.1719 59.1672 57.9921 59.855 57.1637 59.855ZM60.4415 56.0556H60.909V59.7828H60.4051V59.9273H62.0261V59.7828H61.4862V58.1177H61.7744C62.9984 58.1177 63.4672 57.4664 63.4672 56.9958C63.4672 56.4535 63.1072 55.9106 62.0261 55.9106H60.442V56.0556H60.4415ZM61.4862 56.0556H61.6301C62.4576 56.0556 62.8186 56.1278 62.8186 56.9606C62.8186 57.6119 62.6383 57.9736 61.6656 57.9736H61.4858V56.0556H61.4862ZM66.4925 59.7828H65.9522V56.0556H66.4925V55.9106H64.872V56.0556H65.3759V59.7828H64.872V59.9273H66.4925V59.7828ZM68.4011 59.6739C68.6173 59.9277 68.9783 60 69.302 60C70.0585 60 70.5993 59.4937 70.5993 58.661C70.5993 57.0686 68.3297 57.6837 68.3297 56.7068C68.3297 56.2371 68.7616 55.9833 69.1945 55.9833C69.6984 55.9833 70.0585 56.3451 70.2028 56.8513H70.3111V55.9106H70.2392L69.9866 56.0913C69.8782 56.019 69.4827 55.8384 69.23 55.8384C68.7616 55.8384 68.4735 56.019 68.2937 56.2724C68.1134 56.4896 68.0411 56.7064 68.0411 56.9236C68.0411 57.2853 68.1849 57.648 68.545 57.8652C68.6169 57.9009 69.5541 58.227 69.7699 58.2992C70.2383 58.4799 70.3107 58.661 70.3107 58.987C70.3107 59.5294 69.8068 59.855 69.3015 59.855C68.7252 59.855 68.3287 59.4567 68.1494 58.9143H68.0411V59.9273H68.113L68.4011 59.6739ZM74.3091 59.9273V59.7828H73.8052V56.0556H74.0934C74.7051 56.0556 74.8854 56.5262 74.9573 57.0686H75.1012L75.0657 55.9111H72.0035L71.9316 57.0686H72.1114C72.2198 56.4896 72.2917 56.0556 72.8325 56.0556H73.228V59.7828H72.7606V59.9273H74.3091ZM78.3071 60C79.3154 60 80 58.987 80 57.9009C80 56.8513 79.3154 55.8384 78.3071 55.8384C77.298 55.8384 76.6142 56.8513 76.6142 57.9009C76.6142 58.987 77.298 60 78.3071 60ZM78.3071 59.855C77.4787 59.855 77.2625 59.1672 77.2625 57.9375C77.2625 56.6707 77.4787 55.9833 78.3071 55.9833C79.1356 55.9833 79.3518 56.6711 79.3518 57.9375C79.3518 59.1672 79.136 59.855 78.3071 59.855ZM35.3356 17.8407L34.7593 17.5873L34.5071 17.4789L34.219 17.334L33.6427 16.9722L33.0664 16.4655L32.8138 16.2844L32.634 16.0315L32.3459 15.597L32.0218 15.0903L31.8415 14.5836L31.4091 13.6429L31.1573 13.2084L30.9052 12.774L30.4008 12.2677L30.0767 11.9421L29.7526 11.6887L29.3202 11.3631L28.9601 11.0736L28.4557 10.8198L28.0233 10.6031H27.9514V10.422H28.0233L29.2482 10.2409L29.8964 10.1686H31.085L31.5174 10.2409L32.5257 10.422L33.03 10.5669L33.6427 10.7476L34.219 10.9287L34.9032 11.2543L35.2632 11.3631L35.6957 11.616L36.5241 12.1955L37.3885 12.774L37.8205 13.0273L38.2889 13.2446L38.7214 13.4618L39.1538 13.5706L39.3336 13.6429H39.9818L40.1621 13.5706L40.3419 13.4979L40.5221 13.4618L40.7028 13.2446L40.9186 13.1362L41.0265 12.9551L41.4229 12.4488L41.6023 12.0144V11.761L41.6392 11.5076L41.6023 10.9287L41.4229 10.3858L41.2067 9.87912L40.9545 9.40899L40.8467 9.1913L40.6664 8.97453L40.3419 8.68504V8.46781L40.4138 8.43168L41.0984 8.54007L41.7111 8.72117L42.4676 8.9384L43.1522 9.22789L43.8359 9.5535L44.5206 9.91524L45.2407 10.3858L45.8529 10.8564L46.213 11.182L46.6095 11.5076L47.2222 12.1955L47.4739 12.5211L47.7265 12.8828L47.9068 13.2446L48.1585 13.5706L48.555 14.3302L48.8431 15.0903L49.1677 15.8504L49.4913 16.6466L49.779 17.4789L49.9952 18.3474L50.2479 19.1797L50.4636 19.9759L50.6798 20.3738L50.7882 20.6633L51.0399 20.9166L51.2925 21.2422L51.5447 21.4233L51.8684 21.6406L52.2284 21.6767L52.6249 21.7485H53.345L53.6696 21.6767H53.7415V21.8212L53.8503 22.509L53.9932 23.1964L54.1739 23.7754L54.4261 24.3182L54.534 24.6443L54.7498 24.8972L54.9305 25.1505L55.1098 25.4039L55.3624 25.585L55.6151 25.8384L56.1909 26.2724L56.551 26.4535L56.911 26.6707L57.3075 26.8513L57.6676 26.9602L58.4246 27.2135L58.821 27.3942L59.1811 27.6475L59.7924 28.0459L60.3696 28.5521L60.9459 29.0588L61.4498 29.5294L61.8818 30.1084L62.3138 30.6151L62.6383 31.1936L62.9265 31.7012L62.9984 31.7369L62.9265 31.8092H62.8545L62.2419 31.5554L61.4862 31.2302L60.6933 30.9768L60.2977 30.9407H58.6758L58.3158 30.9768L57.9921 31.0491L57.6676 31.1218L57.3075 31.1936L56.9834 31.3029H56.8755V31.2302L56.551 30.7235L56.2988 30.434L56.119 30.1806L55.8664 29.9995L55.5427 29.7466L55.255 29.6017L54.8586 29.4933L54.4985 29.421L54.1016 29.3488H53.4893L52.8411 29.4933L52.3003 29.6744L51.7964 29.9273L51.4719 29.9995L51.2202 30.0361L50.9325 30.1084H49.9233L49.4913 29.9995L48.987 29.9273L48.5905 29.7828L48.2304 29.6744L48.3388 29.7466L48.3023 29.6744L48.2304 29.7466L48.1585 29.7828V29.855L48.555 30.2534L48.987 30.7235L49.4189 31.4474L49.9233 32.1709L50.4281 33.0032L50.7163 33.7633L50.9325 34.1251L50.968 34.5238L51.0399 34.8856V35.2839H50.9325V35.2112L50.6798 35.0301L50.4636 34.7763L49.9952 34.3423L49.7435 34.0894L49.4913 33.8717L48.915 33.51L48.2304 33.1482L47.5458 32.8231L47.1502 32.6772L46.7183 32.5692L46.3573 32.4247L45.9253 32.3881L45.0964 32.1709L44.3408 31.9903L43.5842 31.8092L42.8996 31.5554L42.5395 31.4474L42.215 31.3029L41.6392 30.9768L41.1703 30.6151L40.9545 30.434L40.7747 30.2534H40.7028V30.1806L40.6664 30.2534V30.5424L40.7028 30.8685L40.7747 31.2302L40.9545 31.6281L41.1703 31.918L41.4585 32.3154L41.7111 32.6415L42.1076 32.8231L42.647 33.1848L43.2242 33.51L43.7281 33.8717L44.0881 34.27L44.5206 34.6318L44.917 35.0658L45.2771 35.5364L45.6736 36.0797L45.9617 36.5137L46.213 36.9477L46.4656 37.4187L46.6463 37.8527L46.9695 38.6485L47.2222 39.4808V39.5535L47.1502 39.5901H47.1138V39.5535L46.5375 39.119L45.9617 38.6485L45.349 38.2867L44.7363 37.925L43.9798 37.5266L43.1522 37.2737L42.2869 37.0204L41.2791 36.912L40.9545 36.8397H40.7028L40.2704 36.912L39.766 36.8397H39.5139L39.2617 36.7675L39.0455 36.6586L38.9012 36.5859L38.7933 36.5137L38.5771 36.3326L38.4692 36.1519L38.2889 35.9708L38.1451 35.7536L37.8929 35.2839L37.6407 34.8856L37.3885 34.5238L37.2087 34.3423L37.0285 34.1978L36.7763 34.1251L36.5241 34.0894H36.1641L35.6957 34.1251L35.2273 34.1978L34.7234 34.3423L33.7146 34.5595L33.2822 34.6318H32.8138L32.5257 34.5595L32.2739 34.5238L31.6253 34.3789L31.085 34.1251L30.5806 33.8717L30.0767 33.5822L29.6443 33.2571L29.2123 32.8953L28.7798 32.4247L28.0593 31.6281L27.7711 31.1936L27.5189 30.7235L27.087 29.9273L26.7624 29.2399V29.095H26.8707L27.087 29.2399L27.2672 29.3488L27.6273 29.6017L28.0233 29.855L28.5277 30.0361L28.9601 30.2534L29.2123 30.2895L29.464 30.3617L30.0043 30.434H30.5087L31.1573 30.3617L31.6253 30.2534L32.1296 30.0361L32.598 29.7828H32.5257H32.634V29.6744L32.598 29.6017L31.7691 29.0588L31.1573 28.5521L30.9052 28.227L30.5806 27.9009L30.3284 27.5391L30.0767 27.1047L29.8964 26.7068L29.8245 26.5257L29.7526 26.3446L29.7166 25.9467L29.6443 25.585L29.5723 25.2589L29.5004 24.8972L29.3202 24.5716L29.068 24.2098L28.9601 24.0648L28.7798 23.9565L28.4557 23.7754L28.1316 23.6308L27.8071 23.5581H27.1229L26.4383 23.7754L25.6822 23.9565L24.8897 24.0648H24.1332L23.7012 24.0287L23.3047 23.9565L22.4403 23.5581L22.1162 23.377L21.7561 23.1964L21.4316 22.943L21.1439 22.6897L20.6396 22.2557L20.4233 22.0023L20.2071 21.7485L19.883 21.2422L19.5589 20.6633L19.3063 20.1927L18.8024 19.107L18.6221 18.528L18.3699 18.094L18.1178 17.5873L17.7937 17.1533L17.5055 16.7911L17.0735 16.3932L16.6051 16.1399L16.2451 15.8865L15.8846 15.7054L15.5605 15.597L14.9482 15.4159L14.3719 15.271H14.2996L14.2276 15.1987V15.0903H14.2996L14.696 14.9092L15.0566 14.7647L15.4885 14.6559L15.9205 14.5836H16.9292L17.4336 14.6559L17.938 14.692L18.5502 14.9092L19.1265 15.0903L19.6308 15.3437L20.2071 15.6332L20.6396 15.9588L21.0715 16.2844L21.8281 16.8995L22.1886 17.1533L22.4403 17.2256L22.6206 17.2978H23.0526L23.2688 17.2256L23.5209 17.1533L23.7731 16.9722L23.881 16.7911L24.0253 16.6105V16.3567L23.9529 16.1038L23.8091 15.8504L23.6293 15.597L23.449 15.271L23.1968 15.0181L22.9447 14.7647L22.2605 14.3302L21.936 14.1491L21.5759 14.0046L21.1799 13.8962L20.8194 13.8235L20.7474 13.7513L20.6755 13.7151L20.7474 13.6429L20.8194 13.5706L20.9277 13.4979H21.1439L21.504 13.3895H22.7644L23.1968 13.4618L23.7012 13.4979L24.1332 13.5706L25.1419 13.8235L26.0063 14.2214L26.5107 14.4391L26.8707 14.692L27.3391 14.9454L27.6992 15.1987L28.2759 15.6332L28.7079 16.1038L29.1399 16.5378L29.5723 16.8995L30.0767 17.2978L30.5087 17.5873L31.085 17.9129L31.4091 17.9852L31.7691 18.094L32.2739 18.239L32.7778 18.2751H34.1471L34.5071 18.239L34.9751 18.094L35.3356 18.0579L35.4075 17.9852L35.4435 17.9129L35.4075 17.8407H35.3356ZM42.1076 4.27004V0H37.8205V4.27004H42.1076Z" fill="#0F393B"/>
<path fill-rule="evenodd" clip-rule="evenodd" d="M37.8203 25.7662H42.1074V21.4957H37.8203V25.7662Z" fill="#F5F3EE"/>
<path fill-rule="evenodd" clip-rule="evenodd" d="M42.1074 47.3337V42.991H37.8203V47.3337H42.1074Z" fill="#0F393B"/>
</g>
</svg>
