<svg width="100" height="16" viewBox="0 0 100 16" fill="none" xmlns="http://www.w3.org/2000/svg">
<path opacity="0.2" fill-rule="evenodd" clip-rule="evenodd" d="M89.7378 6.39343L92.8607 3.34065C93.0418 3.11653 93.1318 2.9596 93.1318 2.82523C93.1318 2.60112 92.9212 2.51137 92.2591 2.51137H91.4712V0.584075H100V2.51137H98.8794C97.5852 2.51137 97.3447 2.69037 95.539 4.7746L90.5986 9.65905V12.6397C90.5986 13.4023 91.0191 13.6706 92.2233 13.6706H94.0884V15.5302H82.1427V13.6706H84.0078C85.2109 13.6706 85.6325 13.4023 85.6325 12.6397V9.65905L79.8136 3.76583C78.8521 2.73549 78.9849 2.51137 76.3077 2.51137V0.584075H87.1109V2.51137H86.3417C85.5591 2.51137 85.2275 2.64574 85.2275 2.91449C85.2275 3.13909 85.468 3.31809 85.6186 3.49709L88.5626 6.43462C88.9123 6.76761 89.3393 6.81077 89.7378 6.39343ZM17.2537 0.583585H19.8597V5.96138H17.4529C17.2397 4.88641 16.5048 4.46809 15.8347 3.90412C14.6257 2.88702 12.0074 2.04009 9.80529 2.04009C6.96307 2.04009 4.56437 2.8473 4.56437 4.03408C4.56437 7.32863 20.819 4.70692 20.819 10.9361C20.819 14.185 17.3372 16 11.0844 16C8.91984 16 5.64427 15.385 3.7116 14.4454C3.10577 14.1252 2.84865 14.7485 2.73509 15.5297H0.0632081V9.97241H2.48011C3.0131 11.3843 3.74749 11.6751 4.42296 12.2356C5.59499 13.2218 8.38471 13.9393 10.943 13.9163C14.8003 13.8814 16.1266 13.1095 16.1266 11.989C16.1266 10.8689 14.8148 10.5996 10.5879 9.99497L6.99896 9.457C2.94882 8.89646 0 8.06768 0 5.11003C0 2.04009 3.73035 0.112791 9.62852 0.112791C12.114 0.112791 14.1934 0.416846 16.1893 1.44964C16.7421 1.7787 17.2606 1.81794 17.2537 0.583585ZM68.1115 9.58744L68.1629 3.61037C68.1629 2.82621 67.7173 2.55747 66.444 2.55747H64.9479V0.697847H74.4666V2.55747H73.226C71.9517 2.55747 71.506 2.8267 71.506 3.61037V15.6435L67.7805 15.6165L55.7152 5.15662V12.753C55.7152 13.5151 56.1609 13.8059 57.4342 13.8059H59.0904V15.6435H49.2048V13.8059H50.8429C52.1161 13.8059 52.5618 13.5146 52.5618 12.753V3.61037C52.5618 2.82621 52.1161 2.55747 50.8429 2.55747H49.2048V0.697847H57.7518L68.1115 9.58744ZM36.2273 0C28.6413 0 23.8927 3.07043 23.8927 7.99951C23.8927 12.8403 28.5754 15.8872 35.9959 15.8872C43.8777 15.8872 48.4624 12.8849 48.4624 7.75332C48.4629 3.13762 43.5155 0 36.2273 0ZM36.0549 13.9383C31.8558 13.9383 29.4421 11.7197 29.4421 7.8877C29.4421 4.1459 31.9608 1.9273 36.2648 1.9273C40.3937 1.9273 42.8074 4.19101 42.8074 8.04512C42.8074 11.8095 40.3584 13.9383 36.0549 13.9383Z" fill="#0F393B"/>
</svg>
