<svg width="130" height="29" viewBox="0 0 130 29" fill="none" xmlns="http://www.w3.org/2000/svg">
<g opacity="0.2">
<path d="M11.8776 10.4322L10.7816 13.0403H18.8316L17.7356 10.4322L25.9096 14.4986L17.7356 18.5622L18.8316 15.9541H10.7816L11.869 18.5622L3.67188 14.4986L11.8776 10.4322Z" fill="#0F393B"/>
<path d="M27.8102 29H1.73056C0.77587 28.9972 0.00288427 28.2383 0 27.3009V1.69905C0.00288427 0.761742 0.77587 0.00283175 1.73056 0H27.8102C28.7649 0.00283175 29.5378 0.761742 29.5407 1.69905V27.3009C29.5378 28.2383 28.7649 28.9972 27.8102 29ZM14.6579 2.54858C8.00674 2.60521 2.64488 7.96289 2.59585 14.4986C2.54681 21.1532 7.98655 26.4429 14.7675 26.4486C21.4302 26.4514 26.8237 21.0116 26.9391 14.4986C27.0603 7.76467 21.5167 2.48911 14.6579 2.54858Z" fill="#0F393B"/>
<path d="M39.2347 20.6407V10.622H35.5947V8.29993H45.8455V10.622H42.2084V20.6407H39.2347Z" fill="#0F393B"/>
<path d="M48.418 20.955C47.6507 20.955 46.223 20.8134 45.2856 19.8591C44.5242 19.0803 44.1377 17.9391 44.1377 16.4723C44.1377 14.5835 44.7607 13.2016 45.9865 12.3663C46.7134 11.8905 47.5786 11.6385 48.4843 11.6385C49.4361 11.6385 51.1667 11.9132 52.0868 13.7566C52.704 14.9885 52.6405 16.3335 52.6117 16.9112L52.6031 17.067H46.8749C46.8979 17.9335 47.12 18.9841 48.4497 18.9841C49.1765 18.9841 49.5976 18.6527 49.7765 17.9448L49.8082 17.8202H52.404L52.3896 17.9986C52.3608 18.3413 52.2915 19.1426 51.533 19.9242C50.9013 20.5812 49.7649 20.955 48.418 20.955ZM49.7188 15.1952C49.687 14.4533 49.4188 13.6434 48.4007 13.6434C47.3017 13.6434 47.0335 14.6203 46.9729 15.1952H49.7188Z" fill="#0F393B"/>
<path d="M56.7939 20.8389C55.4614 20.8389 54.873 20.434 54.547 20.1282C54.0394 19.6298 53.751 18.9162 53.751 18.1658C53.751 17.4607 53.999 16.1609 55.6575 15.4076C56.6728 14.9574 58.0889 14.9291 58.9456 14.9262C58.9427 14.493 58.9196 14.2749 58.836 14.0286C58.637 13.4707 58.0024 13.4424 57.8784 13.4424C57.5438 13.4424 57.241 13.5896 57.0679 13.836C56.9122 14.0739 56.9122 14.3061 56.9122 14.4901V14.6544H54.1173L54.123 14.4845C54.1404 14.0625 54.175 13.0714 55.1585 12.3805C55.8277 11.9076 56.7333 11.6697 57.8467 11.6697C58.66 11.6697 60.1512 11.817 61.0194 12.8052C61.651 13.5557 61.651 14.6204 61.651 14.9715L61.6655 18.3498C61.6655 19.1427 61.7318 19.828 61.8645 20.4425L61.9077 20.6407H59.2917L59.2686 20.502C59.2311 20.2669 59.2052 20.0319 59.1907 19.794C58.2562 20.8418 57.2121 20.8389 56.7939 20.8389ZM58.6139 16.6649C57.6015 16.6649 56.5199 16.9849 56.5199 17.8854C56.5199 18.3838 56.8487 18.919 57.5727 18.919C57.9332 18.9162 58.2764 18.7633 58.5129 18.4942C58.8908 18.0355 58.9398 17.4691 58.9456 16.6763C58.8331 16.6678 58.7206 16.6649 58.6139 16.6649Z" fill="#0F393B"/>
<path d="M74.4687 20.6407V15.5407C74.4687 14.5014 74.2524 13.8105 73.1968 13.8105C71.9248 13.8105 71.8238 14.878 71.8238 16.2713V20.6378H68.9684V15.4925C68.9684 14.6798 68.8732 13.8105 67.7311 13.8105C66.3236 13.8105 66.3236 14.98 66.3236 15.5407V20.6407H63.4681V13.6632C63.4681 13.196 63.4422 12.7004 63.3845 12.1001L63.3672 11.9217H66.1245L66.188 12.7372C66.5803 12.3068 67.3215 11.7376 68.6944 11.7376C69.5943 11.7376 70.7624 11.9868 71.3999 13.128C71.994 12.202 72.8881 11.7546 74.1284 11.7546C75.8907 11.7546 76.6406 12.7542 76.88 13.1846C77.3299 13.9039 77.327 14.8837 77.3241 15.5973V20.6378L74.4687 20.6407Z" fill="#0F393B"/>
<path d="M82.747 20.6407L78.1553 8.31689H79.7157L83.5402 18.9501L87.3128 8.31689H88.7694L84.2324 20.6407H82.747Z" fill="#0F393B"/>
<path d="M89.8395 20.6407V11.9727H91.1893V20.6407H89.8395ZM89.7529 9.88854V8.31409H91.2701V9.88854H89.7529Z" fill="#0F393B"/>
<path d="M96.8284 20.89C94.1402 20.89 92.9375 18.5878 92.9375 16.3054C92.9375 14.0966 94.1749 11.7208 96.8947 11.7208C99.5021 11.7208 100.936 13.4311 100.936 16.5376V16.7018H94.3739C94.4258 17.7071 94.8296 19.6468 97.1457 19.6468C98.2503 19.6468 99.1935 18.8794 99.4358 17.7807L99.4646 17.6533H100.881L100.826 17.8572C100.295 19.8989 98.9858 20.89 96.8284 20.89ZM99.4906 15.4615C99.3146 13.8701 98.383 12.9639 96.9149 12.9639C95.3257 12.9639 94.5931 14.2722 94.4287 15.4615H99.4906Z" fill="#0F393B"/>
<path d="M110.929 20.6406L108.42 13.7198L105.865 20.6406H104.598L101.362 11.9726H102.836L105.276 18.7235L107.748 11.9726H109.184L111.587 18.6499L113.941 11.9726H115.414L112.126 20.6406H110.929Z" fill="#0F393B"/>
<path d="M119.66 20.89C116.972 20.89 115.77 18.5878 115.77 16.3054C115.77 14.0966 117.007 11.7208 119.727 11.7208C122.334 11.7208 123.768 13.4311 123.768 16.5376V16.7018H117.206C117.258 17.7071 117.662 19.6468 119.978 19.6468C121.082 19.6468 122.025 18.8794 122.271 17.7807L122.299 17.6533H123.716L123.661 17.8572C123.127 19.8989 121.818 20.89 119.66 20.89ZM122.323 15.4615C122.147 13.8701 121.215 12.9639 119.747 12.9639C118.158 12.9639 117.425 14.2722 117.261 15.4615H122.323Z" fill="#0F393B"/>
<path d="M125.688 20.6408V14.0145C125.699 13.5274 125.665 13.0205 125.633 12.576C125.622 12.4287 125.613 12.2843 125.604 12.1484L125.593 11.9756H126.977L127.009 12.7827C127.419 12.1597 128.088 11.7547 128.806 11.7264C128.907 11.7208 129.008 11.7208 129.109 11.7208C129.351 11.7208 129.596 11.7321 129.833 11.7434L129.991 11.7519L129.994 11.9077V13.0489L129.815 13.0347C129.732 13.029 129.645 13.0149 129.559 13.0036C129.44 12.9837 129.322 12.9724 129.201 12.9696C127.857 12.9696 127.067 13.8814 127.032 15.4672V20.6436H125.688V20.6408Z" fill="#0F393B"/>
</g>
</svg>
