<svg width="130" height="24" viewBox="0 0 130 24" fill="none" xmlns="http://www.w3.org/2000/svg">
<g opacity="0.2">
<path fill-rule="evenodd" clip-rule="evenodd" d="M36.091 12.393L38.6398 6.86862H42.9021L37.3022 17.6442H34.8792L29.2592 6.86862H33.5207L36.091 12.393ZM62.5812 9.83028C64.1273 9.83028 65.0257 10.9433 65.0257 12.2672C65.0257 13.6317 64.128 14.6825 62.5812 14.6825C61.0351 14.6825 60.1367 13.6317 60.1367 12.2672C60.1367 10.944 61.0351 9.83028 62.5812 9.83028ZM64.8999 17.6442H68.7022V0.209598H64.8999V7.91872C64.1064 6.97342 62.8112 6.5116 61.5785 6.5116C58.403 6.5116 56.2093 9.15816 56.2093 12.2463C56.2093 15.3344 58.4447 18.0019 61.6202 18.0019C62.8737 18.0019 64.1898 17.5191 64.8589 16.4474H64.9006V17.6442H64.8999V17.6442ZM76.2658 9.83028C77.8118 9.83028 78.7103 10.9433 78.7103 12.2672C78.7103 13.6317 77.8118 14.6825 76.2658 14.6825C74.7197 14.6825 73.8212 13.6317 73.8212 12.2672C73.8212 10.944 74.7197 9.83028 76.2658 9.83028ZM82.3861 6.86862H78.5831V7.91872C77.7889 6.97342 76.4944 6.5116 75.2624 6.5116C72.0869 6.5116 69.8918 9.15816 69.8918 12.2463C69.8918 15.3344 72.1286 18.0019 75.3041 18.0019C76.5569 18.0019 77.873 17.5191 78.5421 16.4474H78.5831V17.6442H82.3861V6.86862V6.86862ZM88.6753 17.6442H84.8723V10.0189H83.5354V6.86792H84.8723V5.50342C84.8723 4.01176 84.9147 2.91974 85.9577 1.72222C86.8985 0.609237 88.257 0 89.6981 0C90.2832 0 90.8057 0.104801 91.3282 0.377981V3.6757C90.8884 3.48636 90.4923 3.31868 89.9899 3.31868C89.0088 3.31868 88.6746 3.90696 88.6746 5.12544V6.86862H91.3276V10.0196H88.6746V17.6442H88.6753V17.6442ZM109.399 8.25478H109.441C110.318 6.95246 111.385 6.5116 112.868 6.5116C115.75 6.5116 116.9 8.33862 116.9 10.9859V17.6442H113.098V12.393C113.098 11.3639 113.264 9.5571 111.385 9.5571C109.839 9.5571 109.399 10.7127 109.399 12.0569V17.6442H105.596V6.86862H109.399V8.25478H109.399V8.25478ZM122.06 10.691C122.289 9.57806 123.209 8.98978 124.317 8.98978C125.34 8.98978 126.279 9.6619 126.468 10.691H122.06ZM129.999 12.4985C129.999 8.8221 127.847 6.5116 124.128 6.5116C120.64 6.5116 118.195 8.67538 118.195 12.2679C118.195 15.9849 120.848 18.0019 124.4 18.0019C126.845 18.0019 129.247 16.8477 129.853 14.3053H126.197C125.779 15.0186 125.194 15.2918 124.38 15.2918C122.812 15.2918 121.998 14.4527 121.998 12.8967H130V12.4985H129.999V12.4985ZM54.7995 12.5299C54.7994 13.3255 54.6434 14.1133 54.3405 14.8482C54.0377 15.5832 53.5938 16.251 53.0342 16.8135C52.4747 17.376 51.8104 17.8222 51.0794 18.1265C50.3484 18.4309 49.5649 18.5875 48.7736 18.5874C47.9824 18.5873 47.1989 18.4305 46.468 18.126C45.737 17.8215 45.0728 17.3751 44.5134 16.8125C43.954 16.2499 43.5103 15.582 43.2076 14.847C42.9048 14.1119 42.7491 13.3241 42.7492 12.5285C42.7494 10.9218 43.3843 9.38097 44.5144 8.24498C45.6445 7.10898 47.177 6.47089 48.775 6.47107C50.373 6.47126 51.9054 7.10971 53.0352 8.24597C54.165 9.38222 54.7996 10.9232 54.7995 12.5299V12.5299ZM45.4112 12.5041C45.4113 13.1726 45.6085 13.8261 45.9779 14.3819C46.3472 14.9378 46.8722 15.3711 47.4863 15.6271C48.1005 15.8832 48.7764 15.9504 49.4286 15.8203C50.0807 15.6903 50.6799 15.3688 51.1504 14.8965C51.621 14.4242 51.9417 13.8222 52.0721 13.1667C52.2025 12.5112 52.1368 11.8315 51.8832 11.2135C51.6296 10.5955 51.1995 10.067 50.6472 9.69473C50.095 9.32243 49.4454 9.12307 48.7806 9.12183C49.2955 7.41428 50.508 6.7205 50.508 6.7205C47.9989 6.7205 45.8323 8.81581 45.4105 11.4666C45.373 11.7153 45.4112 12.5041 45.4112 12.5041V12.5041ZM23.7746 12.0479C23.7746 18.6496 18.4527 24 11.8877 24C5.32193 24 0 18.6496 0 12.0479C0 5.44613 5.32193 0.0950149 11.8877 0.0950149C18.4527 0.0950149 23.7746 5.44613 23.7746 12.0479ZM5.25175 11.9962C5.25175 15.6802 8.22298 18.6678 11.8877 18.6678C15.5531 18.6678 18.5243 15.6809 18.5243 11.9962C18.5243 8.31487 15.56 5.33085 11.9009 5.32316C12.9174 1.95348 15.3092 0.586182 15.3092 0.586182C10.3576 0.586182 6.0842 4.71881 5.25175 9.94905C5.17601 10.4409 5.25175 11.9962 5.25175 11.9962V11.9962ZM92.2503 12.0632C92.2503 8.7173 94.9471 6.00576 98.2748 6.00576C99.4663 6.00576 100.631 6.36102 101.622 7.02663C102.612 7.69223 103.385 8.63828 103.841 9.74514C104.297 10.852 104.416 12.0699 104.183 13.245C103.951 14.42 103.377 15.4994 102.535 16.3465C101.692 17.1937 100.619 17.7706 99.4501 18.0043C98.2814 18.238 97.0701 18.1181 95.9693 17.6596C94.8685 17.2011 93.9276 16.4247 93.2656 15.4286C92.6037 14.4324 92.2503 13.2613 92.2503 12.0632ZM101.639 12.0891C101.638 11.4204 101.441 10.7668 101.072 10.2108C100.702 9.65486 100.177 9.22145 99.563 8.96538C98.9487 8.70931 98.2727 8.64206 97.6204 8.77214C96.9681 8.90221 96.3688 9.22377 95.8981 9.69619C95.4275 10.1686 95.1067 10.7707 94.9763 11.4263C94.8458 12.082 94.9116 12.7618 95.1653 13.3799C95.4189 13.998 95.8491 14.5266 96.4014 14.899C96.9538 15.2714 97.6035 15.4708 98.2685 15.472C97.7529 17.1789 96.5397 17.8727 96.5397 17.8727C99.0502 17.8727 101.215 15.7781 101.639 13.1266C101.677 12.8779 101.639 12.0891 101.639 12.0891V12.0891Z" fill="#0F393B"/>
</g>
</svg>
